<?xml version="1.0" encoding="utf-8"?>
<!-- Generator: Adobe Illustrator 26.0.0, SVG Export Plug-In . SVG Version: 6.00 Build 0)  -->
<svg version="1.1" xmlns="http://www.w3.org/2000/svg" xmlns:xlink="http://www.w3.org/1999/xlink" x="0px" y="0px"
	 viewBox="0 0 500 500" style="enable-background:new 0 0 500 500;" xml:space="preserve">
<style type="text/css">
	.st0{fill:#FFFFFF;}
	.st1{fill:#E6809B;}
	.st2{fill:#EFADBF;}
	.st3{fill:#4F3747;}
	.st4{fill:#859AF3;}
	.st5{fill:#F7E6AF;}
	.st6{opacity:0.8;}
	.st7{fill:#F0CD60;}
	.st8{fill:#ECC038;}
	.st9{fill:#69495E;}
	.st10{opacity:0.5;}
	.st11{fill:#B71360;}
	.st12{opacity:0.34;}
	.st13{fill:#890E48;}
	.st14{fill:#78B7AD;}
	.st15{fill:#F3D780;}
</style>
<g id="BACKGROUND">
	<rect x="0" y="0" class="st0" width="500" height="500"/>
</g>
<g id="OBJECTS">
	<g>
		<g>
			<path class="st1" d="M400.27,393.78c-1.54-9.54-8.45-52.18,5.95-52.18c10.91,0,3.47,38.67,3.47,51.17
				c0-11.43,12.69-48.99,23.99-44.83c14.54,5.36-13.85,42.51-17.05,46.33c6.74-8.51,34.29-31.26,43.15-22.57
				c11.25,11.03-31.45,29.22-37.7,29.59c11.32,0,45.87-6.17,45.91,6.61c0.04,13.63-42.74,3.2-45.91,1.92
				c10.25,5.18,45.45,18.87,36.71,31.44c-8.6,12.38-37.77-19.58-41.18-24.41c3.23,9.26,27.85,43.71,11.91,48.16
				c-14.44,4.53-18.44-39.3-20.84-46.16c-0.8,11.27,6.63,49.53-7.41,50.29c-15.25,0.82-4.73-44.22-3.01-49.78
				c-2.93,10.86-11.52,45.8-24.29,43.21c-16.06-3.25,8.52-36.33,17.35-46.73c-6.55,4.42-40.31,37.42-46.63,23.58
				c-5.05-11.93,34.74-28.35,41.67-30.1c-10.13,1.46-45.29,6.26-45.3-7.29c-0.01-12.95,40.64-1.13,45.8,0.26
				c-8.66-5.1-43.02-16.32-38.31-28.21c6.7-16.91,39.91,15.9,42.77,21.69c-5.3-9.38-29.49-39.68-16.81-47.58
				C388.36,339.6,399.52,386.99,400.27,393.78"/>
		</g>
		<g>
			<g>
				<g>
					<path class="st2" d="M401.67,390.71c0,0,0.26-1.25,0.66-3.12c0.1-0.47,0.21-0.98,0.32-1.51c0.12-0.54,0.18-1.07,0.28-1.65
						c0.18-1.15,0.38-2.38,0.57-3.6c0.67-5.06,1.33-10.12,1.33-10.12s0.83,5.04,1.67,10.09c0.18,1.3,0.36,2.6,0.53,3.82
						c0.08,0.61,0.18,1.22,0.22,1.76c0.05,0.55,0.09,1.06,0.13,1.54c0.17,1.91,0.28,3.18,0.28,3.18L401.67,390.71z"/>
				</g>
				<g>
					<path class="st2" d="M394.52,394.81c0,0-1.64-4.77-3.28-9.54c-1.62-4.78-3.23-9.57-3.23-9.57s2.94,4.08,5.88,8.16
						c2.97,4.06,5.93,8.13,5.93,8.13L394.52,394.81z"/>
				</g>
				<g>
					<path class="st2" d="M388.85,401.83c0,0-0.83-0.97-2.07-2.42c-0.31-0.34-0.63-0.63-0.99-0.98c-0.36-0.35-0.73-0.72-1.12-1.1
						c-0.4-0.39-0.89-0.79-1.35-1.21c-0.47-0.41-0.95-0.83-1.42-1.26c-0.48-0.44-0.97-0.87-1.44-1.3c-0.24-0.21-0.47-0.43-0.7-0.64
						l-0.17-0.16c-0.1-0.08-0.12-0.12-0.18-0.18l-0.32-0.32c-0.84-0.86-1.61-1.67-2.28-2.34c-1.38-1.32-2.3-2.2-2.3-2.2
						s1.14,0.58,2.86,1.45c0.85,0.45,1.82,1,2.87,1.57l0.4,0.22c0.06,0.03,0.15,0.09,0.18,0.09l0.21,0.1
						c0.27,0.13,0.55,0.26,0.83,0.39c0.56,0.26,1.12,0.53,1.69,0.8c0.58,0.27,1.17,0.53,1.74,0.79c0.58,0.27,1.13,0.5,1.7,0.79
						c0.58,0.3,1.14,0.59,1.67,0.87c0.52,0.28,1.07,0.55,1.49,0.81c1.61,1.03,2.69,1.72,2.69,1.72L388.85,401.83z"/>
				</g>
				<g>
					<path class="st2" d="M387.52,408.92c0,0-1.06-0.19-2.64-0.48c-0.78-0.13-1.73-0.34-2.75-0.57c-1.01-0.23-2.08-0.47-3.15-0.71
						c-2.1-0.55-4.18-1.04-5.73-1.51c-1.54-0.45-2.57-0.74-2.57-0.74s1.07-0.08,2.67-0.19c1.59-0.1,3.72-0.36,5.83-0.56
						c1.03-0.14,2.07-0.27,3.04-0.4c0.96-0.12,1.84-0.24,2.65-0.39c1.58-0.28,2.63-0.46,2.63-0.46L387.52,408.92z"/>
				</g>
				<g>
					<path class="st2" d="M391.39,414.55c0,0-0.29,0.14-0.8,0.4c-0.25,0.13-0.56,0.28-0.92,0.46c-0.35,0.17-0.74,0.38-1.28,0.58
						c-0.51,0.2-1.06,0.42-1.65,0.65c-0.6,0.24-1.16,0.42-1.74,0.61c-1.15,0.37-2.38,0.77-3.61,1.17c-1.22,0.39-2.43,0.87-3.58,1.28
						c-1.14,0.42-2.21,0.81-3.12,1.14c-1.82,0.67-3.03,1.11-3.03,1.11s1.04-0.78,2.61-1.95c0.78-0.58,1.69-1.26,2.67-1.99
						c0.99-0.72,2-1.52,3.08-2.26c1.07-0.74,2.15-1.48,3.15-2.17c0.5-0.34,0.98-0.67,1.34-0.97c0.38-0.3,0.75-0.58,1.08-0.84
						c0.32-0.22,0.65-0.54,0.94-0.82c0.29-0.27,0.54-0.5,0.75-0.7c0.42-0.39,0.65-0.61,0.65-0.61L391.39,414.55z"/>
				</g>
				<g>
					<path class="st2" d="M397.57,420.01c0,0-0.66,1.02-1.66,2.56c-0.26,0.39-0.5,0.8-0.82,1.24c-0.31,0.45-0.64,0.92-0.98,1.4
						c-0.34,0.48-0.69,0.98-1.04,1.48c-0.34,0.51-0.72,1.01-1.12,1.49c-0.77,0.97-1.55,1.94-2.27,2.85
						c-0.35,0.46-0.75,0.86-1.1,1.25c-0.36,0.39-0.7,0.76-1.01,1.1c-1.24,1.35-2.07,2.25-2.07,2.25s0.52-1.11,1.29-2.77
						c0.19-0.41,0.4-0.86,0.62-1.33c0.21-0.47,0.47-0.95,0.65-1.49c0.4-1.05,0.83-2.18,1.26-3.3c0.22-0.55,0.42-1.12,0.59-1.68
						c0.17-0.56,0.35-1.11,0.51-1.64c0.17-0.53,0.32-1.04,0.48-1.52c0.15-0.48,0.27-0.98,0.4-1.41c0.48-1.77,0.8-2.95,0.8-2.95
						L397.57,420.01z"/>
				</g>
				<g>
					<path class="st2" d="M405.67,421.55c0,0-0.17,1.07-0.43,2.67c-0.06,0.4-0.13,0.83-0.21,1.29c-0.08,0.46-0.2,0.97-0.3,1.49
						c-0.22,1.02-0.45,2.12-0.69,3.21c-0.49,2.1-1.02,4.21-1.33,5.78c-0.33,1.59-0.55,2.65-0.55,2.65s-0.16-1.07-0.39-2.68
						c-0.26-1.62-0.47-3.77-0.74-5.92c-0.14-1.04-0.29-2.07-0.42-3.04c-0.07-0.48-0.12-0.93-0.2-1.39
						c-0.09-0.46-0.17-0.89-0.25-1.29c-0.31-1.59-0.51-2.65-0.51-2.65L405.67,421.55z"/>
				</g>
				<g>
					<path class="st2" d="M415.43,416.93c0,0,0.28,1.14,0.69,2.85c0.1,0.43,0.22,0.89,0.34,1.38c0.13,0.47,0.22,1.04,0.32,1.61
						c0.19,1.13,0.39,2.34,0.59,3.54c0.11,0.6,0.15,1.18,0.23,1.75c0.07,0.58,0.14,1.14,0.2,1.69c0.13,1.09,0.25,2.11,0.36,2.98
						c0.21,1.74,0.35,2.91,0.35,2.91s-0.5-1.06-1.25-2.65c-0.38-0.79-0.81-1.72-1.28-2.71c-0.23-0.49-0.47-1-0.72-1.52
						c-0.25-0.51-0.48-1.06-0.75-1.55c-0.52-0.99-1.04-1.98-1.53-2.91c-0.24-0.46-0.46-0.89-0.75-1.32
						c-0.27-0.43-0.52-0.83-0.75-1.2c-0.93-1.49-1.56-2.48-1.56-2.48L415.43,416.93z"/>
				</g>
				<g>
					<path class="st2" d="M420.35,409.95c0,0,0.75,0.74,1.88,1.84c0.56,0.54,1.22,1.21,1.93,1.96c0.35,0.37,0.71,0.74,1.08,1.13
						c0.36,0.39,0.75,0.76,1.09,1.17c0.7,0.8,1.4,1.61,2.05,2.36c0.66,0.73,1.21,1.5,1.7,2.12c0.96,1.25,1.6,2.09,1.6,2.09
						s-0.89-0.56-2.22-1.39c-0.67-0.41-1.41-0.91-2.29-1.36c-0.85-0.46-1.76-0.96-2.67-1.45c-0.45-0.25-0.92-0.46-1.37-0.68
						c-0.45-0.22-0.9-0.43-1.33-0.64c-0.85-0.42-1.66-0.79-2.39-1.11c-1.44-0.64-2.4-1.06-2.4-1.06L420.35,409.95z"/>
				</g>
				<g>
					<path class="st2" d="M419.43,403.59c0,0,1.03,0.21,2.56,0.53c0.38,0.08,0.8,0.17,1.24,0.26c0.43,0.07,0.88,0.14,1.34,0.21
						c0.94,0.15,1.95,0.31,2.95,0.46c2.08,0.3,4.15,0.55,5.72,0.8c1.55,0.24,2.59,0.4,2.59,0.4s-1.03,0.21-2.57,0.54
						c-1.52,0.31-3.58,0.8-5.62,1.26c-1.06,0.22-2.12,0.44-3.11,0.64c-0.5,0.1-0.99,0.2-1.45,0.29c-0.45,0.07-0.87,0.14-1.26,0.2
						c-1.56,0.25-2.59,0.41-2.59,0.41L419.43,403.59z"/>
				</g>
				<g>
					<path class="st2" d="M415.47,396.99c0,0,1.09-0.44,2.73-1.09c0.41-0.16,0.85-0.34,1.32-0.53c0.48-0.18,0.93-0.4,1.42-0.62
						c0.98-0.44,2.03-0.91,3.08-1.38c1.07-0.5,2.14-0.99,3.15-1.45c0.99-0.47,1.95-0.88,2.78-1.22c1.63-0.69,2.71-1.14,2.71-1.14
						s-0.89,0.78-2.21,1.94c-0.66,0.57-1.43,1.25-2.22,2.01c-0.8,0.75-1.66,1.56-2.52,2.36c-0.89,0.81-1.78,1.63-2.61,2.39
						c-0.42,0.38-0.83,0.77-1.22,1.08c-0.39,0.33-0.75,0.63-1.09,0.92c-1.35,1.14-2.25,1.89-2.25,1.89L415.47,396.99z"/>
				</g>
				<g>
					<path class="st2" d="M409.06,391.66c0,0,0.87-0.9,2.18-2.25c0.59-0.66,1.27-1.41,2.01-2.26c0.7-0.89,1.48-1.82,2.2-2.83
						c1.46-1.98,2.83-4.1,3.97-5.62c0.54-0.77,1.05-1.38,1.39-1.82c0.34-0.43,0.53-0.68,0.53-0.68s-0.11,0.29-0.31,0.8
						c-0.19,0.51-0.49,1.23-0.78,2.12c-0.62,1.76-1.29,4.16-2.14,6.58c-0.4,1.21-0.89,2.41-1.33,3.55c-0.49,1.12-0.99,2.2-1.41,3.1
						c-0.85,1.68-1.42,2.79-1.42,2.79L409.06,391.66z"/>
				</g>
			</g>
			<g>
				<path class="st3" d="M392.41,393.73c-16.74,13.79,5.45,42.54,24.52,24.07C431,404.16,409.67,377.73,392.41,393.73"/>
			</g>
			<g>
				<g>
					<path class="st4" d="M410.42,412.72c3.3,2.55-1.07,7.86-4.83,4.45C402.82,414.65,407.02,409.76,410.42,412.72"/>
				</g>
				<g>
					<path class="st4" d="M401.7,396.91c3.3,2.55-1.07,7.86-4.83,4.45C394.1,398.84,398.3,393.96,401.7,396.91"/>
				</g>
				<g>
					<path class="st4" d="M411.95,395.32c3.9,3.01-1.27,9.29-5.71,5.25C402.97,397.6,407.94,391.83,411.95,395.32"/>
				</g>
				<g>
					<path class="st4" d="M397.23,404.66c3.3,2.55-1.07,7.86-4.83,4.45C389.63,406.58,393.83,401.7,397.23,404.66"/>
				</g>
				<g>
					<path class="st4" d="M415.34,404.66c3.29,2.55-1.07,7.86-4.83,4.44C407.73,406.58,411.94,401.7,415.34,404.66"/>
				</g>
				<g>
					<path class="st4" d="M405.74,404.95c2.99,2.34-0.97,7.21-4.38,4.08C398.84,406.72,402.65,402.25,405.74,404.95"/>
				</g>
				<g>
					<path class="st4" d="M400.84,413.05c2.79,2.18-0.91,6.72-4.09,3.8C394.41,414.7,397.97,410.53,400.84,413.05"/>
				</g>
			</g>
		</g>
	</g>
	<g>
		<g>
			<g>
				<path class="st5" d="M234.81,394.8c-19.56-21.04-28.78-44.18,5.21-49.25c8.58-1.28,19.78-5.47,26.14,2.41
					c7.63,9.44,5.19,24.89,0.7,40.65c5.68-18.11,30.94-41.33,42.89-16.68c3.89,9,11.38,18.8,8.84,28.6
					c-3.62,14-29.31,11.29-42.3,9.52c46.26,14.55,43.48,34.01,20.27,46.88c-20.33,11.27-32.45,6.09-39.59-30.19
					c-0.12,15.93,4.66,32.67-4.71,40.03c-7.98,5.91-24.31,0.92-32.77-2.54c-27-11.03-9.1-27.56,12.51-45.6
					c-29.14,13.59-44.25,17.92-45-13.59C186.17,370.96,209.43,374.07,234.81,394.8"/>
			</g>
			<g class="st6">
				<path class="st7" d="M240.23,398.31c-13.69-14.73-20.15-30.93,3.64-34.48c6.01-0.9,13.84-3.83,18.3,1.69
					c5.34,6.61,3.63,17.42,0.49,28.45c3.98-12.68,21.66-28.93,30.02-11.68c2.72,6.3,7.97,13.16,6.19,20.02
					c-2.54,9.8-20.52,7.9-29.61,6.67c32.38,10.18,30.44,23.8,14.19,32.81c-14.23,7.89-22.72,4.27-27.72-21.14
					c-0.08,11.15,3.26,22.87-3.3,28.02c-5.58,4.14-17.02,0.64-22.94-1.78c-18.9-7.72-6.37-19.29,8.76-31.92
					c-20.4,9.52-30.98,12.55-31.5-9.51C206.18,381.62,222.46,383.81,240.23,398.31"/>
			</g>
		</g>
		<g>
			<g>
				<g>
					<path class="st8" d="M245.76,395.4c0,0,0.25-1,0.62-2.5c0.07-0.29,0.15-0.6,0.23-0.94c0.07-0.38,0.08-0.86,0.12-1.33
						c0.04-0.47,0.08-0.98,0.07-1.5c0-0.53,0-1.07,0.01-1.6c-0.06-2.19-0.2-4.46-0.25-6.17c-0.04-0.84-0.02-1.57-0.02-2.06
						c0-0.49,0.01-0.77,0.01-0.77s0.15,0.24,0.41,0.66c0.27,0.42,0.61,1.01,1.09,1.7c0.93,1.39,2.24,3.2,3.52,5.12
						c0.61,1,1.28,1.96,1.8,3c0.27,0.52,0.54,0.98,0.78,1.52c0.23,0.57,0.44,1.13,0.63,1.65c0.09,0.27,0.18,0.52,0.27,0.76
						c0.06,0.19,0.12,0.38,0.18,0.55c0.11,0.33,0.2,0.61,0.28,0.84c0.15,0.47,0.24,0.74,0.24,0.74c0.9,2.74-0.58,5.68-3.32,6.58
						c-2.74,0.9-5.68-0.58-6.58-3.32c-0.32-0.96-0.34-1.95-0.12-2.86L245.76,395.4z"/>
				</g>
				<g>
					<path class="st8" d="M241.96,410.15l-19.98-5.19l19.98-4.82l0.09-0.02c2.78-0.67,5.57,1.04,6.24,3.81
						c0.67,2.78-1.04,5.57-3.81,6.24C243.62,410.38,242.75,410.35,241.96,410.15z"/>
				</g>
				<g>
					<path class="st8" d="M252.5,419.08c0,0-0.88,0.89-2.2,2.21c-0.33,0.33-0.69,0.69-1.07,1.07c-0.36,0.38-0.66,0.74-1.02,1.15
						c-0.71,0.82-1.47,1.7-2.23,2.57c-0.73,0.98-1.46,1.96-2.14,2.88c-0.71,0.92-1.31,1.82-1.81,2.59c-1.04,1.56-1.73,2.6-1.73,2.6
						s0.1-1.25,0.25-3.12c0.07-0.94,0.16-2.05,0.34-3.22c0.16-1.19,0.33-2.45,0.5-3.72c0.28-1.31,0.55-2.62,0.81-3.85
						c0.14-0.62,0.27-1.26,0.41-1.79c0.15-0.52,0.29-1.01,0.41-1.46c0.51-1.81,0.85-3.01,0.85-3.01c0.78-2.75,3.64-4.34,6.39-3.57
						c2.75,0.78,4.35,3.64,3.57,6.39c-0.25,0.87-0.7,1.62-1.29,2.22L252.5,419.08z"/>
				</g>
				<g>
					<path class="st8" d="M264.41,411.55c0,0,0.57,1.03,1.43,2.58c0.21,0.39,0.45,0.81,0.69,1.25c0.25,0.43,0.5,0.96,0.77,1.47
						c0.52,1.02,1.08,2.11,1.63,3.2c1.03,2.11,2.04,4.25,2.85,5.8c0.8,1.57,1.34,2.62,1.34,2.62s-1-0.63-2.5-1.57
						c-1.53-0.94-3.47-2.25-5.45-3.55c-0.96-0.6-1.92-1.21-2.82-1.78c-0.46-0.28-0.85-0.54-1.3-0.8c-0.44-0.25-0.85-0.5-1.23-0.72
						c-1.53-0.89-2.54-1.48-2.54-1.48l-0.02-0.01c-2.48-1.45-3.31-4.63-1.87-7.1c1.45-2.48,4.63-3.31,7.1-1.87
						C263.32,410.07,263.98,410.77,264.41,411.55z"/>
				</g>
				<g>
					<path class="st8" d="M262.93,397.35c0,0,0.29,0.01,0.8,0.02c0.26,0.01,0.57,0.01,0.92,0.02c0.17,0,0.34,0.01,0.53,0.01
						c0.12,0,0.25,0,0.39,0c0.29,0,0.61,0.01,0.95,0.01c0.39-0.03,0.88-0.14,1.36-0.22c0.48-0.08,0.99-0.18,1.52-0.33
						c0.53-0.14,1.07-0.28,1.62-0.42c1.11-0.34,2.23-0.68,3.27-0.99c1.05-0.33,2.06-0.62,2.92-0.85c0.84-0.26,1.6-0.38,2.09-0.49
						c0.5-0.11,0.79-0.17,0.79-0.17s-0.22,0.2-0.59,0.55c-0.37,0.36-0.91,0.81-1.5,1.46c-0.6,0.63-1.28,1.35-2.01,2.17
						c-0.74,0.82-1.53,1.69-2.32,2.57c-0.43,0.44-0.85,0.88-1.28,1.31c-0.41,0.44-0.87,0.85-1.33,1.25
						c-0.47,0.4-0.87,0.79-1.36,1.16c-0.54,0.37-1.08,0.72-1.58,1.04c-0.26,0.16-0.5,0.31-0.74,0.45c-0.19,0.11-0.36,0.21-0.53,0.3
						c-0.31,0.18-0.58,0.33-0.8,0.46c-0.45,0.25-0.7,0.4-0.7,0.4c-2.49,1.42-5.67,0.55-7.09-1.94c-1.42-2.49-0.55-5.67,1.94-7.09
						c0.84-0.48,1.77-0.7,2.67-0.68L262.93,397.35z"/>
				</g>
				<g>
					<path class="st8" d="M242,397.6c0,0,0-0.23,0-0.64c0-0.2,0-0.45,0-0.73c0-0.13,0-0.27,0.01-0.42c0.01-0.08,0.02-0.17,0.02-0.27
						c0.02-0.21,0.04-0.44,0.07-0.67c0-0.28-0.1-0.67-0.15-1.03c-0.06-0.37-0.13-0.76-0.25-1.17c-0.11-0.41-0.23-0.83-0.34-1.25
						c-0.28-0.85-0.55-1.71-0.86-2.53c-0.29-0.83-0.56-1.6-0.79-2.26c-0.24-0.65-0.39-1.24-0.51-1.62
						c-0.11-0.39-0.18-0.61-0.18-0.61s0.19,0.13,0.53,0.36c0.34,0.22,0.79,0.55,1.39,0.91c0.59,0.36,1.28,0.78,2.02,1.23
						c0.74,0.44,1.55,0.96,2.36,1.47c0.4,0.29,0.81,0.57,1.21,0.85c0.41,0.27,0.79,0.59,1.17,0.92c0.38,0.33,0.74,0.6,1.1,0.98
						c0.37,0.41,0.71,0.82,1.03,1.21c0.97,1.21,1.62,2.01,1.62,2.01c1.84,2.29,1.47,5.63-0.82,7.47c-2.29,1.84-5.63,1.47-7.47-0.82
						c-0.8-0.99-1.18-2.18-1.17-3.36L242,397.6z"/>
				</g>
				<g>
					<path class="st8" d="M249.98,394.44c0,0,0.38-0.96,0.96-2.39c0.17-0.41,0.36-0.86,0.56-1.34c0.21-0.43,0.43-0.83,0.66-1.26
						c0.45-0.87,0.98-1.7,1.49-2.55c1.04-1.62,2.07-3.25,2.85-4.47c0.75-1.22,1.21-2.07,1.21-2.07s0.03,0.24,0.09,0.66
						c0.05,0.42,0.15,1.03,0.22,1.75c0.13,1.44,0.31,3.37,0.49,5.29c0.12,0.93,0.2,1.87,0.36,2.69c0.08,0.41,0.13,0.82,0.21,1.17
						c0.09,0.3,0.18,0.59,0.26,0.86c0.09,0.29,0.17,0.55,0.24,0.79c0.08,0.28,0.15,0.53,0.21,0.73c0.12,0.41,0.18,0.64,0.18,0.64
						l0.01,0.02c0.8,2.81-0.82,5.74-3.63,6.55c-2.81,0.8-5.74-0.82-6.55-3.63C249.47,396.68,249.56,395.49,249.98,394.44z"/>
				</g>
				<g>
					<path class="st8" d="M240.6,406.84c0,0-0.86-0.58-2.16-1.46c-0.36-0.25-0.74-0.52-1.15-0.8c-0.4-0.28-0.73-0.57-1.11-0.87
						c-0.77-0.61-1.5-1.23-2.27-1.86c-0.75-0.59-1.51-1.25-2.22-1.75c-0.36-0.26-0.71-0.53-1.05-0.76
						c-0.35-0.22-0.67-0.42-0.98-0.61c-0.31-0.19-0.6-0.38-0.86-0.49c-0.27-0.13-0.5-0.24-0.7-0.33c-0.4-0.18-0.63-0.29-0.63-0.29
						s0.24-0.05,0.67-0.14c0.22-0.04,0.49-0.1,0.79-0.16c0.32-0.08,0.66-0.1,1.05-0.13c0.39-0.03,0.82-0.06,1.26-0.1
						c0.45-0.02,0.91-0.01,1.4-0.01c1-0.02,2,0.06,3.04,0.09c1,0.05,2.03,0.12,2.93,0.15c0.45,0.01,0.92,0.05,1.29,0.03
						c0.36-0.02,0.7-0.03,1.02-0.04c1.43-0.06,2.39-0.1,2.39-0.1l0.03,0c2.91-0.12,5.37,2.14,5.49,5.05
						c0.12,2.91-2.14,5.37-5.05,5.49C242.61,407.79,241.51,407.45,240.6,406.84z"/>
				</g>
				<g>
					<path class="st8" d="M244.55,410.83c0,0-1.06,0.36-2.65,0.9c-0.46,0.15-0.96,0.3-1.5,0.47c-0.52,0.15-1.01,0.23-1.54,0.35
						c-1.05,0.24-2.15,0.38-3.23,0.54c-2.18,0.26-4.3,0.43-5.88,0.52c-1.58,0.09-2.64,0.16-2.64,0.16s0.83-0.65,2.08-1.62
						c1.25-0.96,2.88-2.29,4.4-3.63c0.74-0.7,1.49-1.36,2.1-2.04c0.3-0.33,0.64-0.65,0.86-0.94c0.21-0.28,0.41-0.55,0.59-0.8
						c0.89-1.19,1.48-1.99,1.48-1.99l0.02-0.03c1.73-2.32,5.02-2.81,7.34-1.08c2.32,1.73,2.81,5.02,1.08,7.34
						C246.41,409.89,245.53,410.5,244.55,410.83z"/>
				</g>
				<g>
					<path class="st8" d="M248.79,417.68c0,0-0.81,0.68-2.03,1.71c-0.37,0.3-0.77,0.62-1.2,0.96c-0.43,0.34-0.82,0.54-1.26,0.83
						c-0.86,0.56-1.75,1.03-2.65,1.53c-0.86,0.47-1.73,0.94-2.54,1.38c-0.81,0.44-1.52,0.88-2.13,1.27
						c-0.64,0.38-1.08,0.78-1.44,1.03c-0.35,0.27-0.55,0.42-0.55,0.42s0.07-0.24,0.19-0.66c0.14-0.41,0.27-1.06,0.57-1.76
						c0.27-0.71,0.61-1.57,1.02-2.43c0.4-0.89,0.83-1.78,1.26-2.7c0.39-0.89,0.83-1.78,1.11-2.58c0.14-0.39,0.34-0.81,0.4-1.12
						c0.07-0.31,0.13-0.6,0.19-0.87c0.32-1.36,0.54-2.27,0.54-2.27l0-0.01c0.67-2.83,3.52-4.58,6.35-3.91
						c2.83,0.67,4.59,3.52,3.91,6.35C250.26,416.01,249.63,416.98,248.79,417.68z"/>
				</g>
				<g>
					<path class="st8" d="M255.76,415.98c0,0-1.27,3.81-2.55,7.62c-1.14,3.71-2.27,7.62-2.27,7.62s-1.37-3.71-2.73-7.62
						c-1.23-3.81-2.46-7.62-2.46-7.62l-0.02-0.05c-0.89-2.77,0.63-5.75,3.4-6.64c2.77-0.89,5.75,0.63,6.64,3.4
						C256.14,413.8,256.11,414.95,255.76,415.98z"/>
				</g>
				<g>
					<path class="st8" d="M262.69,415.29c0,0,0.29,3.81,0.59,7.62c0.07,0.97,0.13,1.95,0.19,2.86c0.02,0.46,0.07,0.88,0.07,1.31
						c0.01,0.42,0.01,0.82,0.02,1.18c0.02,1.44,0.03,2.4,0.03,2.4s-0.6-0.75-1.5-1.87c-0.22-0.27-0.46-0.57-0.72-0.88
						c-0.25-0.31-0.55-0.63-0.84-0.96c-0.59-0.66-1.22-1.36-1.85-2.06c-2.6-2.83-5.2-5.67-5.2-5.67c-1.98-2.16-1.83-5.51,0.33-7.49
						c2.16-1.98,5.51-1.83,7.49,0.33c0.83,0.91,1.29,2.03,1.38,3.17L262.69,415.29z"/>
				</g>
				<g>
					<path class="st8" d="M265.09,408.27c0,0,0.85,0.62,2.12,1.55c0.36,0.28,0.76,0.57,1.17,0.89c0.37,0.31,0.71,0.64,1.08,0.98
						c0.75,0.66,1.43,1.42,2.15,2.15c1.37,1.49,2.66,2.99,3.6,4.12c0.95,1.13,1.58,1.88,1.58,1.88s-0.96-0.22-2.39-0.54
						c-1.43-0.33-3.34-0.75-5.22-1.08c-0.94-0.13-1.86-0.31-2.71-0.37c-0.42-0.04-0.84-0.09-1.2-0.1c-0.32,0.01-0.63,0.02-0.91,0.03
						c-0.66,0.01-1.21,0.03-1.6,0.04c-0.43,0.01-0.67,0.01-0.67,0.01l-0.03,0c-2.92,0.05-5.32-2.28-5.37-5.2
						c-0.05-2.92,2.28-5.32,5.2-5.37C263.08,407.23,264.2,407.61,265.09,408.27z"/>
				</g>
				<g>
					<path class="st8" d="M259.06,395.97c0,0,0.89-0.25,2.24-0.62c0.24-0.06,0.5-0.12,0.77-0.18c0.33-0.15,0.71-0.36,1.1-0.55
						c0.39-0.19,0.8-0.42,1.21-0.69c0.42-0.26,0.84-0.53,1.26-0.8c1.69-1.16,3.39-2.45,4.71-3.38c0.64-0.47,1.22-0.83,1.61-1.09
						c0.39-0.25,0.61-0.4,0.61-0.4s-0.1,0.25-0.28,0.67c-0.17,0.43-0.44,1.02-0.7,1.77c-0.55,1.47-1.22,3.47-2.01,5.51
						c-0.22,0.51-0.44,1.03-0.66,1.54c-0.21,0.51-0.46,1.01-0.72,1.5c-0.27,0.5-0.5,0.97-0.78,1.44c-0.36,0.5-0.72,0.99-1.07,1.43
						c-0.35,0.44-0.72,0.89-0.89,1.09c-0.21,0.25-0.39,0.46-0.54,0.64c-0.3,0.36-0.47,0.56-0.47,0.56
						c-1.86,2.22-5.17,2.51-7.39,0.65c-2.22-1.86-2.51-5.17-0.65-7.39c0.71-0.84,1.62-1.41,2.61-1.68L259.06,395.97z"/>
				</g>
				<g>
					<path class="st8" d="M265.97,401.04c0,0,0.23,0.14,0.64,0.39c0.07,0.04,0.09,0.06,0.08,0.07l0.02,0.05
						c0.02,0.04,0.04,0.09,0.06,0.14c-0.01,0.06,0.16,0.11,0.26,0.17c0.12,0.06,0.25,0.13,0.38,0.2c0.59,0.25,1.35,0.52,2.26,0.74
						c0.9,0.24,1.92,0.42,2.95,0.61c2.07,0.34,4.23,0.57,5.85,0.74c1.62,0.16,2.71,0.28,2.71,0.28s-0.96,0.5-2.41,1.26
						c-1.45,0.76-3.4,1.76-5.46,2.68c-1.04,0.45-2.09,0.9-3.14,1.26c-1.04,0.38-2.1,0.67-3.08,0.88c-0.26,0.04-0.5,0.08-0.74,0.12
						c-0.25,0.03-0.42,0.08-0.75,0.08c-0.29,0-0.56,0-0.82,0.01c-0.13,0-0.25,0-0.37-0.01c-0.13,0-0.23-0.01-0.27,0
						c-0.48,0.02-0.75,0.03-0.75,0.03c-2.89,0.11-5.31-2.15-5.42-5.04c-0.11-2.89,2.15-5.31,5.04-5.42
						c1.06-0.04,2.07,0.24,2.91,0.76L265.97,401.04z"/>
				</g>
			</g>
			<g>
				<path class="st3" d="M243.69,395.9c-12.72,10.48,4.14,32.33,18.63,18.29C273.02,403.83,256.81,383.74,243.69,395.9"/>
			</g>
			<g>
				<g>
					<path class="st1" d="M244.58,407.33c-2.1,2.71,2.21,6.42,4.51,2.91C250.79,407.64,246.69,404.26,244.58,407.33"/>
				</g>
				<g>
					<path class="st1" d="M250.93,404.51c-1.53,1.99,1.62,4.73,3.3,2.15C255.47,404.75,252.47,402.25,250.93,404.51"/>
				</g>
				<g>
					<path class="st1" d="M250.12,397.74c-2.28,2.93,2.39,6.95,4.89,3.15C256.85,398.08,252.4,394.42,250.12,397.74"/>
				</g>
				<g>
					<path class="st1" d="M256.59,406.73c-2.1,2.71,2.21,6.42,4.51,2.91C262.8,407.04,258.69,403.66,256.59,406.73"/>
				</g>
				<g>
					<path class="st1" d="M256.94,400.39c-1.75,2.27,1.85,5.39,3.76,2.45C262.11,400.66,258.69,397.82,256.94,400.39"/>
				</g>
				<g>
					<path class="st1" d="M243.96,400.7c-1.75,2.27,1.85,5.39,3.76,2.45C249.13,400.98,245.71,398.13,243.96,400.7"/>
				</g>
				<g>
					<path class="st1" d="M250.75,410.8c-1.74,2.27,1.85,5.4,3.76,2.45C255.91,411.07,252.49,408.23,250.75,410.8"/>
				</g>
			</g>
		</g>
	</g>
	<g>
		<g>
			<g>
				<g>
					<path class="st9" d="M93.58,397.12c-8.03-15.22-13.34-31.35-13.75-48.66c-0.03-1.29-2.03-1.29-2,0
						c0.42,17.64,5.84,34.16,14.03,49.67C92.45,399.27,94.18,398.26,93.58,397.12L93.58,397.12z"/>
				</g>
			</g>
			<g>
				<g>
					<path class="st9" d="M97.92,400.88c-15.65-0.79-30.76,3.21-46.15,5.3c-1.27,0.17-0.73,2.1,0.53,1.93
						c15.21-2.07,30.16-6.01,45.62-5.23C99.21,402.95,99.21,400.95,97.92,400.88L97.92,400.88z"/>
				</g>
			</g>
			<g>
				<g>
					<path class="st9" d="M119.73,413.66c-2.48-17.05-4.77-34.16-3.19-51.41c0.12-1.29-1.89-1.27-2,0
						c-1.59,17.43,0.76,34.72,3.26,51.94C117.98,415.47,119.91,414.92,119.73,413.66L119.73,413.66z"/>
				</g>
			</g>
			<g>
				<g>
					<path class="st9" d="M131.18,421.24c-7.87-2.59-16.64-0.43-24.39,1.61c-9.59,2.54-18.21,7.01-27.23,11.03
						c-1.18,0.52-0.16,2.25,1.01,1.73c8.42-3.75,16.52-7.95,25.43-10.47c7.75-2.19,16.73-4.58,24.64-1.97
						C131.88,423.57,132.4,421.64,131.18,421.24L131.18,421.24z"/>
				</g>
			</g>
			<g>
				<g>
					<path class="st9" d="M146.55,434.3c0.19-16.5-0.71-32.98,2.94-49.21c0.28-1.26-1.65-1.79-1.93-0.53
						c-3.7,16.4-2.82,33.06-3.01,49.74C144.53,435.59,146.53,435.59,146.55,434.3L146.55,434.3z"/>
				</g>
			</g>
			<g>
				<g>
					<path class="st9" d="M150.25,441.81c-12.43,2.42-24.26,6.8-35.71,12.14c-1.17,0.54-0.15,2.27,1.01,1.73
						c11.3-5.27,22.97-9.55,35.23-11.94C152.04,443.49,151.51,441.56,150.25,441.81L150.25,441.81z"/>
				</g>
			</g>
		</g>
		<g>
			<g>
				<path class="st4" d="M74.36,381.82c-14.38-9.62-39.53-60.71-20.83-62.96C68.86,317.01,66.33,367.68,74.36,381.82"/>
			</g>
			<g>
				<path class="st4" d="M91.15,396.93c-5.03-6.3-53.16-34.49-57.22-22.06C27.12,395.68,83.6,395.8,91.15,396.93"/>
			</g>
			<g>
				<path class="st4" d="M105.12,405.9c-3.65-10.23-27.12-65.76-8.68-67.98C110.45,336.23,103.63,399.11,105.12,405.9"/>
			</g>
			<g>
				<path class="st4" d="M114.79,412.17c-12.19-3.02-66.96-2.69-66.16,10.3C49.75,440.73,109.85,412.93,114.79,412.17"/>
			</g>
			<g>
				<path class="st4" d="M132.9,423.71c-5.5-11.12-16.34-72.97,1.34-72.82C146,350.99,132.85,421.03,132.9,423.71"/>
			</g>
			<g>
				<path class="st4" d="M140.83,431.48c-13.62-1.4-63,2.31-59.69,17.39C83.58,460.02,134.15,433.9,140.83,431.48"/>
			</g>
			<g>
				<path class="st4" d="M152.99,446.03c-3.33-13.24-4.84-50.2,7.64-50.09C169.63,396.01,157.89,438.8,152.99,446.03"/>
			</g>
		</g>
		<g>
			<g>
				<path class="st9" d="M57.05,341.2c2.06,13.72,6.3,26.74,14.7,37.92c7.38,9.84,17.49,17.74,27.7,24.47
					c22.45,14.81,50.42,25.27,56.8,54.5c0.27,1.26,2.2,0.73,1.93-0.53c-5.85-26.79-29.83-38.85-51.42-51.76
					c-11.43-6.84-22.42-14.93-31.16-25.06c-9.76-11.31-14.43-25.5-16.62-40.07C58.79,339.4,56.86,339.94,57.05,341.2L57.05,341.2z"
					/>
			</g>
		</g>
		<g>
			<g>
				<g>
					<path class="st1" d="M74.17,343.54c-6.56,5.41,2.13,16.67,9.61,9.43C89.3,347.63,80.94,337.27,74.17,343.54"/>
				</g>
				<g>
					<path class="st1" d="M110.41,357.33c-6.56,5.41,2.13,16.67,9.61,9.43C125.54,361.43,117.18,351.07,110.41,357.33"/>
				</g>
				<g>
					<path class="st1" d="M143.98,379.91c-6.56,5.41,2.13,16.67,9.61,9.43C159.11,384,150.75,373.64,143.98,379.91"/>
				</g>
				<g>
					<path class="st1" d="M110.5,449.89c-6.56,5.41,2.13,16.68,9.61,9.44C125.62,453.99,117.26,443.63,110.5,449.89"/>
				</g>
				<g>
					<path class="st1" d="M47.5,402.23c-6.56,5.41,2.13,16.68,9.61,9.44C62.62,406.33,54.26,395.97,47.5,402.23"/>
				</g>
				<g>
					<path class="st1" d="M75.52,429.83c-6.56,5.41,2.13,16.67,9.61,9.43C90.65,433.92,82.29,423.56,75.52,429.83"/>
				</g>
				<g>
					<path class="st1" d="M143.73,366.75c-4.78,3.94,1.56,12.15,7,6.88C154.75,369.73,148.66,362.18,143.73,366.75"/>
				</g>
				<g>
					<path class="st1" d="M118.5,346.73c-4.78,3.94,1.56,12.15,7,6.88C129.53,349.71,123.43,342.16,118.5,346.73"/>
				</g>
				<g>
					<path class="st1" d="M68.54,332.34c-4.78,3.94,1.56,12.15,7,6.88C79.57,335.33,73.47,327.78,68.54,332.34"/>
				</g>
				<g>
					<path class="st1" d="M38.56,393.35c-4.78,3.94,1.56,12.15,7,6.88C49.59,396.33,43.49,388.78,38.56,393.35"/>
				</g>
				<g>
					<path class="st1" d="M71.05,444.36c-4.78,3.94,1.56,12.15,7,6.88C82.07,447.34,75.98,439.79,71.05,444.36"/>
				</g>
				<g>
					<path class="st1" d="M97.19,452.08c-4.78,3.94,1.56,12.15,7,6.88C108.21,455.06,102.12,447.51,97.19,452.08"/>
				</g>
				<g>
					<path class="st1" d="M80.18,333.06c-3.83,3.15,1.25,9.72,5.6,5.5C89,335.45,84.12,329.41,80.18,333.06"/>
				</g>
				<g>
					<path class="st1" d="M65.21,434.74c-3.83,3.15,1.25,9.72,5.6,5.5C74.03,437.13,69.15,431.09,65.21,434.74"/>
				</g>
				<g>
					<path class="st1" d="M104.26,462.5c-3.83,3.15,1.25,9.72,5.6,5.5C113.08,464.89,108.2,458.85,104.26,462.5"/>
				</g>
				<g>
					<path class="st1" d="M154.56,373.13c-3.83,3.15,1.25,9.72,5.6,5.5C163.38,375.51,158.5,369.47,154.56,373.13"/>
				</g>
				<g>
					<path class="st1" d="M108.26,347.44c-3.83,3.15,1.25,9.72,5.6,5.5C117.08,349.83,112.2,343.79,108.26,347.44"/>
				</g>
				<g>
					<path class="st1" d="M36.93,405.58c-3.83,3.15,1.25,9.72,5.6,5.5C45.75,407.97,40.87,401.93,36.93,405.58"/>
				</g>
			</g>
			<g>
				<g class="st10">
					<path class="st0" d="M78.17,345.78c-2.23,1.84,0.73,5.67,3.27,3.21C83.31,347.17,80.47,343.65,78.17,345.78"/>
				</g>
				<g class="st10">
					<path class="st0" d="M114.41,359.58c-2.23,1.84,0.73,5.67,3.27,3.21C119.55,360.97,116.71,357.45,114.41,359.58"/>
				</g>
				<g class="st10">
					<path class="st0" d="M147.98,382.15c-2.23,1.84,0.73,5.67,3.27,3.21C153.12,383.55,150.28,380.02,147.98,382.15"/>
				</g>
				<g class="st10">
					<path class="st0" d="M114.49,452.14c-2.23,1.84,0.73,5.67,3.27,3.21C119.64,453.53,116.79,450.01,114.49,452.14"/>
				</g>
				<g class="st10">
					<path class="st0" d="M51.49,404.48c-2.23,1.84,0.73,5.67,3.27,3.21C56.64,405.87,53.79,402.35,51.49,404.48"/>
				</g>
				<g class="st10">
					<path class="st0" d="M79.52,432.07c-2.23,1.84,0.73,5.67,3.27,3.21C84.66,433.46,81.82,429.94,79.52,432.07"/>
				</g>
				<g class="st10">
					<path class="st0" d="M146.91,368.11c-1.63,1.34,0.53,4.13,2.38,2.34C150.66,369.13,148.59,366.56,146.91,368.11"/>
				</g>
				<g class="st10">
					<path class="st0" d="M121.69,348.09c-1.63,1.34,0.53,4.13,2.38,2.34C125.44,349.11,123.36,346.54,121.69,348.09"/>
				</g>
				<g class="st10">
					<path class="st0" d="M71.73,333.71c-1.63,1.34,0.53,4.13,2.38,2.34C75.48,334.72,73.4,332.15,71.73,333.71"/>
				</g>
				<g class="st10">
					<path class="st0" d="M41.75,394.71c-1.63,1.34,0.53,4.13,2.38,2.34C45.5,395.73,43.42,393.16,41.75,394.71"/>
				</g>
				<g class="st10">
					<path class="st0" d="M74.23,445.72c-1.63,1.34,0.53,4.13,2.38,2.34C77.98,446.74,75.91,444.17,74.23,445.72"/>
				</g>
				<g class="st10">
					<path class="st0" d="M100.37,453.44c-1.63,1.34,0.53,4.13,2.38,2.34C104.12,454.46,102.05,451.89,100.37,453.44"/>
				</g>
				<g class="st10">
					<path class="st0" d="M82.93,333.95c-1.3,1.07,0.42,3.3,1.91,1.87C85.92,334.76,84.27,332.71,82.93,333.95"/>
				</g>
				<g class="st10">
					<path class="st0" d="M67.95,435.63c-1.3,1.07,0.42,3.31,1.91,1.87C70.95,436.45,69.29,434.39,67.95,435.63"/>
				</g>
				<g class="st10">
					<path class="st0" d="M107,463.39c-1.3,1.07,0.42,3.3,1.91,1.87C110,464.2,108.35,462.15,107,463.39"/>
				</g>
				<g class="st10">
					<path class="st0" d="M157.31,374.02c-1.3,1.07,0.42,3.31,1.91,1.87C160.3,374.83,158.65,372.78,157.31,374.02"/>
				</g>
				<g class="st10">
					<path class="st0" d="M111,348.34c-1.3,1.07,0.42,3.3,1.91,1.87C114,349.15,112.35,347.09,111,348.34"/>
				</g>
				<g class="st10">
					<path class="st0" d="M39.68,406.48c-1.3,1.07,0.42,3.3,1.91,1.87C42.68,407.29,41.02,405.23,39.68,406.48"/>
				</g>
			</g>
		</g>
		<g>
			<g>
				<g>
					<path class="st9" d="M97,352.83c1.27,17.72,3.96,35.36,7.04,52.85c0.22,1.27,2.15,0.73,1.93-0.53
						c-3.04-17.32-5.71-34.77-6.96-52.32C98.91,351.55,96.91,351.54,97,352.83L97,352.83z"/>
				</g>
			</g>
			<g>
				<g>
					<path class="st9" d="M131.66,364.19c-1.72,19.52-0.06,39.05,0,58.6c0,1.29,2.01,1.29,2,0c-0.06-19.54-1.72-39.08,0-58.6
						C133.78,362.9,131.78,362.91,131.66,364.19L131.66,364.19z"/>
				</g>
			</g>
			<g>
				<g>
					<path class="st9" d="M158.2,402.82c-2.86,14.1-4.97,28.33-6.2,42.67c-0.11,1.29,1.89,1.28,2,0
						c1.22-14.16,3.31-28.21,6.13-42.14C160.39,402.09,158.46,401.55,158.2,402.82L158.2,402.82z"/>
				</g>
			</g>
			<g>
				<g>
					<path class="st9" d="M141.57,430.33c-16.75,4.67-33.67,8.72-50.33,13.69c-1.23,0.37-0.71,2.3,0.53,1.93
						c16.67-4.97,33.58-9.02,50.33-13.69C143.34,431.92,142.81,429.98,141.57,430.33L141.57,430.33z"/>
				</g>
			</g>
			<g>
				<g>
					<path class="st9" d="M114.83,411.26c-18.85,1.58-37.35,5.52-55.93,8.88c-1.27,0.23-0.73,2.16,0.53,1.93
						c18.41-3.33,36.72-7.25,55.4-8.81C116.11,413.16,116.12,411.16,114.83,411.26L114.83,411.26z"/>
				</g>
			</g>
			<g>
				<g>
					<path class="st9" d="M90,394.71c-14.32-6.13-29.62-9.33-44.24-14.62c-1.22-0.44-1.74,1.49-0.53,1.93
						c14.45,5.23,29.6,8.36,43.76,14.42C90.17,396.94,91.19,395.21,90,394.71L90,394.71z"/>
				</g>
			</g>
		</g>
	</g>
	<g>
		<g>
			<path class="st11" d="M399.88,193.85c-6.77,0.46-11.29,1.83-15.8,6.39c-4.96,5.93-5.42,10.04-13.54,10.96
				c-14.9,1.83-30.25,1.37-29.8,21.91c0,5.48,0.9,10.5,1.81,16.44c0.45,6.39-1.35,12.33-2.71,18.72c-1.35,7.3-0.9,14.15,4.52,19.63
				c5.42,5.48,13.99,5.48,18.51,11.87c5.42,6.85,3.61,14.15,13.09,18.26c9.48,4.56,23.48,2.74,32.05-2.28
				c9.93-6.39,16.25-10.5,28.44-10.5c10.38,0,17.6-1.83,22.12-11.87c4.06-9.59,0.45-17.35,0-27.39c0-10.96,1.35-15.98,3.61-26.02
				c4.51-18.26-18.47-23.23-27.54-28.76C424.24,204.86,418.99,193.34,399.88,193.85"/>
		</g>
		<g>
			<g class="st12">
				<path class="st13" d="M400.35,221.36c-3.83,0.26-6.39,1.03-8.95,3.62c-2.81,3.36-3.07,5.69-7.67,6.2
					c-8.43,1.03-17.12,0.77-16.87,12.41c0,3.1,0.51,5.94,1.02,9.3c0.26,3.62-0.77,6.98-1.54,10.6c-0.77,4.13-0.51,8.01,2.56,11.11
					c3.07,3.1,7.92,3.1,10.48,6.72c3.07,3.88,2.04,8.01,7.41,10.34c5.37,2.58,13.29,1.55,18.14-1.29c5.62-3.62,9.2-5.94,16.1-5.94
					c5.88,0,9.96-1.03,12.52-6.72c2.3-5.43,0.26-9.82,0-15.51c0-6.2,0.77-9.04,2.04-14.73c2.55-10.34-10.46-13.15-15.59-16.28
					C414.14,227.59,411.17,221.06,400.35,221.36"/>
			</g>
			<g>
				<path class="st3" d="M400.68,240.35c-1.81,0.12-3.01,0.49-4.21,1.7c-1.32,1.58-1.44,2.68-3.61,2.92
					c-3.97,0.49-8.06,0.37-7.94,5.84c0,1.46,0.24,2.8,0.48,4.38c0.12,1.7-0.36,3.28-0.72,4.99c-0.36,1.95-0.24,3.77,1.2,5.23
					c1.44,1.46,3.73,1.46,4.93,3.16c1.44,1.82,0.96,3.77,3.49,4.87c2.53,1.22,6.25,0.73,8.54-0.61c2.65-1.7,4.33-2.8,7.58-2.8
					c2.77,0,4.69-0.49,5.89-3.16c1.08-2.55,0.12-4.62,0-7.3c0-2.92,0.36-4.26,0.96-6.93c1.2-4.87-4.92-6.19-7.34-7.66
					C407.17,243.29,405.77,240.22,400.68,240.35"/>
			</g>
			<g>
				<g>
					<path class="st0" d="M425.55,263.34c-1.5,1.23,0.49,3.8,2.19,2.15C429,264.27,427.09,261.91,425.55,263.34"/>
				</g>
				<g>
					<path class="st0" d="M372.72,263.34c-1.5,1.23,0.49,3.8,2.19,2.15C376.17,264.27,374.26,261.91,372.72,263.34"/>
				</g>
				<g>
					<path class="st0" d="M408.6,230.49c-1.5,1.23,0.49,3.8,2.19,2.15C412.05,231.42,410.14,229.06,408.6,230.49"/>
				</g>
				<g>
					<path class="st0" d="M409.28,272.82c-2.88,2.37,0.94,7.31,4.22,4.14C415.91,274.62,412.24,270.07,409.28,272.82"/>
				</g>
				<g>
					<path class="st0" d="M421.58,254.52c-2.88,2.37,0.94,7.31,4.21,4.14C428.22,256.31,424.55,251.77,421.58,254.52"/>
				</g>
				<g>
					<path class="st0" d="M377.09,255.08c-2.88,2.37,0.94,7.31,4.22,4.14C383.72,256.88,380.06,252.33,377.09,255.08"/>
				</g>
				<g>
					<path class="st0" d="M385.75,273.28c-2.76,2.27,0.9,7.02,4.04,3.97C392.12,275,388.6,270.64,385.75,273.28"/>
				</g>
				<g>
					<path class="st0" d="M390.67,282.31c-1.44,1.18,0.47,3.65,2.1,2.06C393.98,283.21,392.15,280.94,390.67,282.31"/>
				</g>
				<g>
					<path class="st0" d="M388.64,235.65c-2.76,2.27,0.9,7.02,4.04,3.97C395,237.37,391.48,233.01,388.64,235.65"/>
				</g>
				<g>
					<path class="st0" d="M410.61,237.6c-2.76,2.27,0.9,7.02,4.04,3.97C416.97,239.33,413.45,234.97,410.61,237.6"/>
				</g>
				<g>
					<path class="st0" d="M419.57,275.38c-1.44,1.18,0.47,3.65,2.1,2.06C422.88,276.28,421.05,274.01,419.57,275.38"/>
				</g>
				<g>
					<path class="st0" d="M405.76,281.2c-1.43,1.18,0.47,3.65,2.1,2.06C409.07,282.1,407.24,279.83,405.76,281.2"/>
				</g>
				<g>
					<path class="st0" d="M394.76,228.92c-1.5,1.23,0.49,3.8,2.19,2.15C398.21,229.85,396.31,227.49,394.76,228.92"/>
				</g>
				<g>
					<path class="st0" d="M381.05,236.59c-1.5,1.23,0.49,3.8,2.19,2.15C384.5,237.53,382.6,235.16,381.05,236.59"/>
				</g>
				<g>
					<path class="st0" d="M378.04,274.22c-1.5,1.23,0.49,3.8,2.19,2.15C381.5,275.16,379.59,272.79,378.04,274.22"/>
				</g>
				<g>
					<path class="st0" d="M426.46,247.94c-1.44,1.18,0.47,3.65,2.1,2.06C429.77,248.83,427.94,246.56,426.46,247.94"/>
				</g>
				<g>
					<path class="st0" d="M372.76,249.83c-1.44,1.18,0.47,3.65,2.1,2.06C376.07,250.73,374.24,248.46,372.76,249.83"/>
				</g>
				<g>
					<path class="st0" d="M419.57,238.6c-1.43,1.18,0.47,3.65,2.1,2.06C422.88,239.49,421.05,237.22,419.57,238.6"/>
				</g>
				<g>
					<path class="st0" d="M400.44,233.57c-2.21,1.82,0.72,5.61,3.23,3.17C405.53,234.95,402.71,231.46,400.44,233.57"/>
				</g>
				<g>
					<path class="st0" d="M379.45,266.72c-2.21,1.82,0.72,5.61,3.24,3.17C384.54,268.1,381.73,264.61,379.45,266.72"/>
				</g>
				<g>
					<path class="st0" d="M419.03,267.27c-2.21,1.82,0.72,5.61,3.24,3.17C424.13,268.65,421.31,265.16,419.03,267.27"/>
				</g>
				<g>
					<path class="st0" d="M379.13,245.04c-2.21,1.82,0.72,5.61,3.24,3.18C384.22,246.42,381.4,242.93,379.13,245.04"/>
				</g>
				<g>
					<path class="st0" d="M397.44,277.11c-2.21,1.82,0.72,5.61,3.24,3.17C402.53,278.49,399.72,275,397.44,277.11"/>
				</g>
				<g>
					<path class="st0" d="M419.03,245.04c-2.21,1.82,0.72,5.61,3.23,3.18C424.13,246.42,421.31,242.93,419.03,245.04"/>
				</g>
			</g>
			<g>
				<path class="st9" d="M402.69,247.16c-6.43,0.61-5.73,11.41,2.05,10.03C410.48,256.18,409.61,246.09,402.69,247.16"/>
				<path class="st9" d="M405.08,259.51c-5,0.47-4.46,8.87,1.59,7.8C411.13,266.52,410.46,258.67,405.08,259.51"/>
				<path class="st9" d="M393.98,255.07c-5.71,0.54-5.1,10.14,1.82,8.92C400.9,263.08,400.13,254.12,393.98,255.07"/>
				<g>
					<path class="st9" d="M393.23,253.46c3.58,0,3.58-5.55,0-5.55S389.65,253.46,393.23,253.46L393.23,253.46z"/>
				</g>
				<g>
					<path class="st9" d="M398.42,270.88c3.58,0,3.58-5.55,0-5.55C394.83,265.32,394.83,270.88,398.42,270.88L398.42,270.88z"/>
				</g>
				<g>
					<path class="st9" d="M412.1,260.13c3.58,0,3.58-5.55,0-5.55S408.52,260.13,412.1,260.13L412.1,260.13z"/>
				</g>
			</g>
		</g>
		<g>
			<g class="st12">
				<path class="st13" d="M371.75,223.2c0,0,0.26-0.05,0.75-0.15c0.5-0.07,1.18-0.27,2.03-0.51c0.86-0.26,1.86-0.65,2.96-1.16
					c1.1-0.53,2.28-1.22,3.5-2.05c1.22-0.83,2.47-1.84,3.71-2.98c1.23-1.14,2.46-2.45,3.56-3.84c1.2-1.51,2.4-3.16,4.13-4.77
					c0.22-0.2,0.42-0.4,0.65-0.6l0.74-0.55l0.75-0.55l0.83-0.45l0.84-0.44c0.28-0.14,0.58-0.22,0.88-0.33
					c0.59-0.19,1.18-0.46,1.77-0.54l1.77-0.33l0.03,0c-0.23,0.02,0.34-0.03,0.29-0.02l0.05,0l0.1,0l0.19,0l0.39-0.01l0.78-0.01
					c0.28,0,0.48-0.03,0.81,0.01l0.95,0.1c0.62,0.08,1.28,0.12,1.83,0.28c0.57,0.14,1.13,0.28,1.69,0.42
					c0.53,0.21,1.07,0.41,1.59,0.61c0.54,0.19,1.01,0.46,1.51,0.71c0.49,0.25,0.98,0.49,1.41,0.79c0.45,0.29,0.89,0.57,1.33,0.86
					c0.42,0.3,0.82,0.62,1.21,0.92c0.4,0.3,0.78,0.62,1.13,0.95c0.38,0.34,0.75,0.67,1.12,1c0.59,0.61,1.3,1.39,1.82,2.04
					c0.54,0.68,1.05,1.33,1.52,1.95c0.94,1.24,1.77,2.37,2.57,3.31c0.8,0.93,1.52,1.73,2.2,2.29c0.67,0.56,1.25,0.97,1.68,1.2
					c0.44,0.22,0.67,0.34,0.67,0.34s-0.27-0.02-0.76-0.07c-0.49-0.08-1.24-0.24-2.11-0.62c-1.78-0.73-4.02-2.38-6.37-4.47
					c-0.58-0.51-1.18-1.05-1.81-1.6c-0.65-0.56-1.17-1-1.92-1.57l-0.03-0.03c-0.02-0.02,0.1,0.09,0.04,0.04l-0.02-0.01l-0.07-0.04
					l-0.13-0.09l-0.27-0.18l-0.54-0.36c-0.36-0.25-0.72-0.49-1.1-0.7c-0.37-0.22-0.75-0.45-1.13-0.68c-0.39-0.2-0.78-0.4-1.18-0.6
					c-1.59-0.74-3.25-1.41-4.99-1.65c-0.44-0.12-0.82-0.09-1.22-0.14l-0.59-0.06c-0.18-0.04-0.49,0-0.73,0l-0.78,0.02l-0.39,0.01
					l-0.19,0.01l-0.1,0l-0.05,0c-0.07,0,0.49-0.04,0.24-0.02l-0.02,0l-1.28,0.26c-1.68,0.39-3.06,1.09-4.39,2.21
					c-1.32,1.12-2.65,2.63-4,4.04c-1.47,1.54-3,2.8-4.57,3.88c-1.57,1.07-3.14,1.94-4.67,2.58c-1.52,0.65-2.99,1.06-4.29,1.32
					c-1.3,0.27-2.47,0.33-3.41,0.33c-0.95,0-1.69-0.1-2.17-0.19C372.01,223.25,371.75,223.2,371.75,223.2z"/>
			</g>
			<g class="st12">
				<path class="st13" d="M438.5,228.71c0,0,0.52,0.11,1.38,0.35c0.85,0.2,2.03,0.46,3.46,0.85c0.72,0.19,1.5,0.43,2.33,0.73
					c0.83,0.32,1.73,0.68,2.64,1.25c0.91,0.52,1.86,1.29,2.66,2.26c0.82,0.98,1.41,2.22,1.73,3.48c0.15,0.63,0.2,1.26,0.27,1.88
					c0,0.3,0,0.6-0.02,0.9l-0.02,0.45l-0.01,0.22l0,0.06l-0.03,0.25l0,0.02l-0.02,0.09c-0.09,0.47-0.2,0.94-0.31,1.39
					c-0.14,0.5-0.29,1.02-0.46,1.51c-0.32,0.94-0.68,1.77-1.03,2.53c-0.36,0.78-0.68,1.46-1.02,2.12c-0.29,0.64-0.62,1.24-0.85,1.77
					c-0.22,0.53-0.51,1.01-0.65,1.41c-0.32,0.8-0.57,1.3-0.57,1.3s-0.19-0.48-0.43-1.38c-0.13-0.45-0.19-1-0.27-1.64
					c-0.08-0.65-0.06-1.35-0.06-2.14c0.04-0.76,0.1-1.61,0.21-2.44c0.11-0.81,0.22-1.67,0.34-2.55c0.03-0.4,0.1-0.79,0.15-1.21
					c0.03-0.47,0.08-0.94,0.14-1.42l0.01-0.09l0-0.02c0.01-0.05-0.05,0.41-0.02,0.21l0-0.01l0-0.03l-0.01-0.14l-0.02-0.28
					c-0.01-0.19-0.02-0.37-0.01-0.56c-0.06-0.34-0.09-0.69-0.17-1c-0.1-0.3-0.14-0.63-0.3-0.9c-0.11-0.29-0.27-0.56-0.44-0.84
					c-0.37-0.54-0.82-1.09-1.4-1.61c-0.55-0.53-1.21-1.03-1.83-1.53c-0.66-0.52-1.28-1.01-1.85-1.46c-0.58-0.48-1.11-0.94-1.57-1.38
					c-0.46-0.42-0.83-0.88-1.13-1.21c-0.3-0.34-0.47-0.66-0.62-0.85C438.57,228.82,438.5,228.71,438.5,228.71z"/>
			</g>
			<g class="st12">
				<path class="st13" d="M448,268.78c0,0,0.32,0.88,0.77,2.45c0.23,0.78,0.5,1.73,0.74,2.85c0.24,1.12,0.49,2.4,0.6,3.86
					c0.09,0.72,0.03,1.5,0.05,2.31c-0.05,0.81-0.15,1.67-0.32,2.54c-0.11,0.44-0.24,0.88-0.37,1.33l-0.1,0.34l-0.03,0.09l-0.01,0.04
					l-0.01,0.02c0.01-0.01-0.08,0.17-0.05,0.1l-0.06,0.14l-0.24,0.57l-0.24,0.58l-0.4,0.7l-0.42,0.7c-0.15,0.22-0.3,0.41-0.46,0.62
					c-1.23,1.64-2.91,2.99-4.7,3.97c-1.79,1-3.71,1.66-5.6,2.17c-1.9,0.48-3.78,0.81-5.59,1.04c-1.8,0.26-3.62,0.41-5.27,0.58
					c-1.66,0.17-3.23,0.35-4.67,0.62c-1.45,0.25-2.75,0.63-3.9,1.09c-1.16,0.45-2.12,1.04-2.92,1.68c-0.38,0.33-0.75,0.65-1.03,1
					c-0.31,0.33-0.6,0.65-0.79,0.98c-0.2,0.33-0.42,0.61-0.57,0.88c-0.14,0.28-0.26,0.51-0.36,0.7c-0.2,0.39-0.31,0.6-0.31,0.6
					s0.01-0.23,0.04-0.67c0.02-0.22,0.04-0.5,0.06-0.82c0.03-0.33,0.14-0.68,0.24-1.1c0.08-0.42,0.26-0.86,0.47-1.34
					c0.17-0.51,0.5-0.97,0.83-1.5c0.33-0.53,0.78-1.01,1.24-1.54c0.5-0.47,1.05-0.98,1.68-1.4c1.25-0.88,2.72-1.63,4.3-2.19
					c1.58-0.57,3.28-1.02,5-1.38c1.74-0.36,3.43-0.66,5.19-0.99c1.74-0.34,3.46-0.65,5.11-1.09c1.65-0.41,3.21-0.95,4.61-1.62
					c1.39-0.68,2.6-1.51,3.55-2.51c0.12-0.12,0.25-0.25,0.35-0.37l0.28-0.36l0.29-0.35l0.32-0.53l0.32-0.53l0.08-0.13
					c0.04-0.08-0.04,0.09-0.03,0.07l0.01-0.01l0.01-0.03l0.03-0.06l0.1-0.23c0.14-0.31,0.28-0.62,0.43-0.92
					c0.24-0.63,0.43-1.29,0.61-1.93c0.12-0.67,0.3-1.31,0.37-1.96c0.19-1.29,0.3-2.52,0.38-3.62c0.07-1.12,0.12-2.09,0.17-2.89
					C447.89,269.71,448,268.78,448,268.78z"/>
			</g>
			<g class="st12">
				<path class="st13" d="M374.5,298.33c0,0,0.38,0.29,0.96,0.85c0.29,0.27,0.62,0.65,1.03,0.97c0.38,0.33,0.8,0.71,1.26,1.11
					c0.5,0.37,0.97,0.81,1.5,1.2c0.57,0.35,1.06,0.82,1.68,1.12c0.3,0.16,0.59,0.34,0.88,0.53c0.32,0.13,0.64,0.27,0.94,0.42
					l0.46,0.23c0.17,0.05,0.33,0.1,0.5,0.16l0.98,0.35l1.03,0.24c0.17,0.04,0.34,0.08,0.51,0.13l0.06,0.02l0.03,0.01l0.01,0
					c-0.5-0.04-0.13-0.01-0.24-0.02l0.02,0l0.16,0.01l0.32,0.03c0.41,0.04,0.82,0.08,1.22,0.12c0.27-0.01,0.54-0.02,0.83,0.01
					c0.61-0.04,1.29-0.06,1.96-0.19c0.66-0.08,1.37-0.23,2.01-0.32c0.68-0.1,1.29-0.19,1.88-0.2c0.58-0.02,1.07-0.03,1.49,0.03
					c0.83,0.09,1.28,0.21,1.28,0.21s-0.39,0.32-1.02,0.75c-0.32,0.2-0.68,0.53-1.1,0.83c-0.42,0.31-0.89,0.67-1.41,1.06
					c-0.56,0.38-1.12,0.8-1.87,1.19c-0.71,0.41-1.55,0.75-2.52,1.02c-0.52,0.12-1.06,0.21-1.61,0.29c-0.47,0.05-0.85,0.05-1.29,0.06
					l-0.32,0.01l-0.16,0h-0.02l-0.28-0.02l-0.05-0.01l-0.09-0.01c-0.25-0.04-0.5-0.08-0.74-0.13c-0.5-0.1-1-0.19-1.49-0.31
					l-1.44-0.56c-0.24-0.09-0.47-0.19-0.7-0.3l-0.65-0.39c-0.43-0.26-0.85-0.53-1.25-0.81c-0.37-0.32-0.73-0.64-1.07-0.97
					c-0.72-0.61-1.19-1.39-1.7-2.06c-0.46-0.7-0.78-1.42-1.09-2.06c-0.27-0.67-0.45-1.32-0.6-1.87c-0.17-0.55-0.16-1.03-0.22-1.43
					C374.49,298.81,374.5,298.33,374.5,298.33z"/>
			</g>
			<g class="st12">
				<path class="st13" d="M361.25,222.95c0,0-0.51,0.31-1.4,0.8c-0.42,0.28-0.91,0.55-1.43,0.96c-0.53,0.37-1.08,0.82-1.59,1.35
					c-0.13,0.13-0.25,0.26-0.38,0.4c-0.11,0.15-0.23,0.29-0.34,0.45c-0.25,0.28-0.43,0.63-0.64,0.94c-0.37,0.68-0.68,1.41-0.91,2.22
					c-0.21,0.82-0.35,1.7-0.44,2.64c-0.06,0.94-0.09,1.93-0.05,2.94c0.03,1.02,0.1,2.05,0.19,3.08c0.1,1.05,0.21,2.08,0.31,3.08
					c0.21,2.02,0.42,3.96,0.53,5.66c0.11,1.7,0.12,3.15,0.07,4.18c-0.04,1.02-0.15,1.62-0.15,1.62s-0.08-0.13-0.22-0.36
					c-0.13-0.24-0.36-0.58-0.59-1.03c-0.5-0.88-1.19-2.13-1.91-3.69c-0.72-1.55-1.47-3.42-2.07-5.51c-0.3-1.04-0.57-2.15-0.76-3.3
					c-0.21-1.15-0.32-2.35-0.38-3.57c-0.01-1.23,0.04-2.48,0.25-3.72c0.22-1.25,0.59-2.48,1.13-3.62c0.54-1.15,1.3-2.16,2.12-2.99
					c0.86-0.79,1.76-1.43,2.67-1.8c0.89-0.4,1.73-0.63,2.48-0.74c0.73-0.15,1.42-0.11,1.93-0.14c0.51,0.01,0.91,0.09,1.19,0.11
					C361.1,222.93,361.25,222.95,361.25,222.95z"/>
			</g>
			<g class="st12">
				<path class="st13" d="M351.5,265.27c0,0,0.04,0.14,0.12,0.4c0.06,0.26,0.2,0.64,0.29,1.14c0.23,0.99,0.46,2.4,0.69,4.02
					c0.24,1.62,0.46,3.47,0.93,5.21c0.21,0.89,0.54,1.71,0.87,2.53c0.38,0.79,0.79,1.56,1.34,2.25c0.11,0.19,0.27,0.35,0.41,0.52
					l0.21,0.26l0.11,0.13l0.05,0.07l0.03,0.03c0.03,0.03-0.26-0.26-0.13-0.13l0.01,0.01l0.02,0.02c0.4,0.36,0.84,0.81,1.05,0.94
					c0.12,0.1,0.25,0.22,0.44,0.32c0.17,0.11,0.32,0.24,0.51,0.34c0.36,0.2,0.73,0.39,1.12,0.57c1.57,0.69,3.43,1.13,5.06,1.67
					c1.63,0.52,3.01,1.16,3.86,1.75c0.44,0.26,0.75,0.55,0.96,0.72c0.2,0.18,0.31,0.28,0.31,0.28s-0.15,0-0.42-0.01
					c-0.27-0.02-0.66-0.03-1.14-0.04c-0.48-0.02-1.07,0.02-1.72,0.04c-0.66,0.04-1.41,0.09-2.22,0.13
					c-1.63,0.08-3.65,0.23-6.03-0.31c-0.3-0.08-0.6-0.14-0.9-0.24c-0.3-0.11-0.6-0.22-0.9-0.34c-0.61-0.27-1.18-0.52-1.81-0.98
					c-0.7-0.46-1.05-0.78-1.47-1.14l-0.18-0.17l-0.04-0.05l-0.08-0.09l-0.16-0.18l-0.32-0.37c-0.21-0.25-0.44-0.48-0.62-0.76
					c-0.78-1.06-1.4-2.25-1.83-3.47c-0.4-1.22-0.67-2.45-0.73-3.61c-0.1-1.17-0.03-2.26,0.07-3.27c0.12-1.01,0.29-1.93,0.49-2.77
					c0.4-1.67,0.86-3,1.21-3.93C351.26,265.81,351.5,265.27,351.5,265.27z"/>
			</g>
		</g>
	</g>
	<g>
		<g>
			<g>
				<path class="st14" d="M194.5,239.48c0,0-0.01,0.09-0.02,0.25c-0.02,0.15-0.01,0.42-0.07,0.67c-0.05,0.27-0.09,0.61-0.19,0.93
					c-0.09,0.34-0.19,0.73-0.33,1.09c-0.28,0.75-0.69,1.52-1.21,2.23c-0.52,0.71-1.17,1.34-1.89,1.88
					c-0.76,0.51-1.59,0.92-2.45,1.19c-0.86,0.26-1.74,0.4-2.56,0.43c-0.4,0.02-0.81-0.02-1.16-0.05c-0.34-0.01-0.69-0.08-0.96-0.13
					c-0.26-0.03-0.51-0.13-0.67-0.16c-0.16-0.04-0.24-0.07-0.24-0.07s0.01-0.09,0.03-0.25c0.02-0.15,0.03-0.42,0.09-0.67
					c0.05-0.27,0.11-0.6,0.22-0.92c0.1-0.34,0.21-0.71,0.36-1.08c0.3-0.73,0.72-1.47,1.25-2.15c0.53-0.68,1.19-1.27,1.92-1.77
					c0.73-0.52,1.53-0.95,2.37-1.23c0.84-0.28,1.7-0.44,2.5-0.49c0.4-0.03,0.8-0.01,1.15,0.01c0.34,0,0.68,0.06,0.95,0.1
					c0.26,0.02,0.52,0.11,0.67,0.14C194.42,239.46,194.5,239.48,194.5,239.48z"/>
			</g>
			<g>
				<path class="st14" d="M244.25,223.2c0,0,0.05-0.09,0.13-0.25c0.09-0.14,0.21-0.39,0.39-0.63c0.34-0.53,0.86-1.2,1.52-1.85
					c0.33-0.33,0.7-0.66,1.09-0.97c0.4-0.31,0.76-0.66,1.18-0.95c0.82-0.6,1.72-1.08,2.67-1.45c1.03-0.4,2.12-0.69,3.19-0.81
					c0.53-0.07,1.05-0.09,1.57-0.09c0.54,0.02,1.06,0.07,1.53,0.15c0.96,0.15,1.76,0.41,2.33,0.66c0.28,0.1,0.51,0.24,0.66,0.31
					c0.15,0.08,0.24,0.14,0.24,0.14s-0.05,0.09-0.14,0.25c-0.09,0.15-0.22,0.4-0.4,0.65c-0.34,0.53-0.84,1.21-1.44,1.86
					c-0.3,0.32-0.63,0.64-0.99,0.95c-0.37,0.32-0.76,0.67-1.19,0.96c-0.85,0.61-1.79,1.11-2.8,1.5c-1.09,0.41-2.23,0.71-3.33,0.84
					c-0.54,0.06-1.09,0.11-1.59,0.08c-0.5-0.04-0.98-0.11-1.44-0.19c-0.91-0.17-1.7-0.45-2.27-0.69c-0.28-0.1-0.52-0.24-0.67-0.31
					C244.33,223.25,244.25,223.2,244.25,223.2z"/>
			</g>
			<g>
				<path class="st14" d="M216.25,295.07c0,0-0.08,0.08-0.23,0.2c-0.15,0.11-0.36,0.31-0.64,0.48c-0.55,0.39-1.33,0.87-2.27,1.28
					c-0.47,0.21-0.98,0.4-1.51,0.58c-0.53,0.17-1.15,0.25-1.77,0.33c-1.25,0.15-2.59,0.14-3.91,0.01c-1.23-0.16-2.45-0.44-3.57-0.85
					c-0.56-0.2-1.11-0.45-1.6-0.68c-0.49-0.24-0.96-0.5-1.39-0.76c-0.86-0.53-1.58-1.1-2.08-1.56c-0.25-0.21-0.45-0.43-0.58-0.56
					c-0.13-0.15-0.21-0.22-0.21-0.22s0.08-0.07,0.24-0.18c0.15-0.1,0.38-0.28,0.67-0.43c0.58-0.35,1.4-0.76,2.39-1.09
					c0.99-0.34,2.16-0.6,3.33-0.71c1.18-0.11,2.43-0.08,3.65,0.08c1.14,0.12,2.27,0.36,3.34,0.74c0.54,0.17,1.03,0.43,1.57,0.62
					c0.53,0.19,1.03,0.41,1.49,0.64c0.92,0.45,1.69,0.96,2.23,1.37c0.27,0.18,0.48,0.39,0.62,0.5
					C216.17,295,216.25,295.07,216.25,295.07z"/>
			</g>
			<g>
				<path class="st14" d="M296.25,260.51c0,0,0.09-0.02,0.26-0.04c0.16-0.01,0.41-0.07,0.68-0.07c0.58-0.04,1.34-0.04,2.17,0.08
					c0.41,0.06,0.84,0.15,1.26,0.27c0.43,0.15,0.85,0.2,1.26,0.34c0.82,0.26,1.59,0.64,2.28,1.13c0.76,0.51,1.48,1.12,2.06,1.82
					c0.58,0.69,1.08,1.47,1.43,2.24c0.36,0.76,0.58,1.5,0.69,2.06c0.07,0.26,0.09,0.52,0.12,0.67c0.02,0.17,0.03,0.26,0.03,0.26
					s-0.09,0.03-0.25,0.07c-0.16,0.03-0.41,0.11-0.68,0.15c-0.57,0.11-1.33,0.2-2.15,0.17c-0.82-0.02-1.7-0.15-2.6-0.42
					c-0.9-0.27-1.76-0.68-2.57-1.22c-0.84-0.61-1.62-1.31-2.23-2.08c-0.3-0.38-0.61-0.78-0.78-1.18c-0.19-0.4-0.35-0.8-0.48-1.2
					c-0.26-0.78-0.4-1.54-0.45-2.11c-0.04-0.27-0.04-0.53-0.05-0.68C296.25,260.61,296.25,260.51,296.25,260.51z"/>
			</g>
			<g>
				<path class="st14" d="M261.5,275.79c0,0,0.09-0.01,0.27-0.03c0.16,0,0.43-0.04,0.72-0.02c0.3,0.01,0.67,0,1.05,0.05
					c0.39,0.05,0.81,0.1,1.23,0.14c0.42,0.05,0.85,0.12,1.28,0.22c0.41,0.1,0.91,0.23,1.36,0.39c0.9,0.32,1.83,0.79,2.68,1.36
					c0.87,0.6,1.67,1.28,2.35,2.1c0.68,0.79,1.22,1.69,1.59,2.54c0.39,0.82,0.56,1.69,0.64,2.28c0.06,0.29,0.05,0.56,0.07,0.72
					c0.01,0.17,0,0.27,0,0.27s-0.1,0.01-0.28,0.03c-0.17,0-0.44,0.04-0.73,0.02c-0.29,0-0.66,0.01-1.03-0.02
					c-0.36-0.04-0.77-0.07-1.21-0.12c-0.43-0.06-0.87-0.14-1.31-0.24c-0.43-0.12-0.92-0.23-1.37-0.4c-0.89-0.32-1.83-0.79-2.67-1.37
					c-0.87-0.6-1.67-1.29-2.35-2.11c-0.34-0.41-0.63-0.8-0.92-1.25c-0.28-0.45-0.52-0.89-0.71-1.32c-0.41-0.85-0.5-1.64-0.6-2.24
					c-0.05-0.28-0.05-0.55-0.07-0.72C261.5,275.88,261.5,275.79,261.5,275.79z"/>
			</g>
			<g>
				<path class="st14" d="M278.5,253c0,0-0.07,0.03-0.21,0.1c-0.13,0.06-0.35,0.18-0.57,0.26c-0.23,0.09-0.52,0.21-0.82,0.27
					c-0.3,0.08-0.64,0.18-0.99,0.23c-0.34,0.05-0.7,0.09-1.06,0.09c-0.35,0.02-0.71,0.04-1.05,0.01c-0.69-0.04-1.33-0.22-1.93-0.51
					c-0.64-0.31-1.24-0.74-1.74-1.27c-0.25-0.26-0.47-0.56-0.67-0.85c-0.21-0.31-0.39-0.64-0.54-0.95
					c-0.15-0.32-0.26-0.66-0.36-0.96c-0.11-0.28-0.16-0.59-0.21-0.83c-0.06-0.23-0.07-0.47-0.09-0.61
					c-0.02-0.15-0.02-0.23-0.02-0.23s0.07-0.04,0.21-0.11c0.13-0.06,0.34-0.2,0.56-0.28c0.23-0.1,0.51-0.23,0.8-0.32
					c0.3-0.1,0.62-0.22,0.95-0.29c0.65-0.16,1.36-0.22,2.1-0.17c0.72,0.06,1.42,0.25,2.07,0.57c0.7,0.35,1.34,0.82,1.86,1.38
					c0.26,0.28,0.5,0.58,0.69,0.88c0.18,0.31,0.33,0.64,0.45,0.96c0.13,0.32,0.22,0.66,0.3,0.96c0.09,0.28,0.13,0.59,0.17,0.83
					c0.05,0.23,0.05,0.48,0.07,0.62C278.49,252.92,278.5,253,278.5,253z"/>
			</g>
			<g>
				<path class="st14" d="M220,243.99c0,0-0.04-0.07-0.12-0.2c-0.07-0.13-0.22-0.34-0.31-0.56c-0.11-0.23-0.26-0.52-0.35-0.82
					c-0.11-0.31-0.24-0.65-0.32-1c-0.09-0.35-0.15-0.73-0.19-1.11c-0.03-0.38-0.12-0.73-0.13-1.1c-0.05-0.72,0.04-1.41,0.25-2.06
					c0.22-0.73,0.56-1.44,1.02-2.06c0.45-0.61,1.02-1.18,1.63-1.63c0.3-0.22,0.62-0.41,0.91-0.57c0.27-0.17,0.57-0.29,0.8-0.39
					c0.22-0.11,0.46-0.16,0.6-0.21c0.15-0.05,0.22-0.07,0.22-0.07s0.05,0.07,0.14,0.2c0.08,0.12,0.24,0.32,0.36,0.54
					c0.13,0.22,0.3,0.5,0.43,0.78c0.14,0.29,0.3,0.62,0.42,0.95c0.25,0.66,0.41,1.39,0.46,2.18c0.04,0.78-0.05,1.56-0.28,2.32
					c-0.27,0.83-0.67,1.62-1.17,2.29c-0.25,0.33-0.52,0.66-0.81,0.89c-0.3,0.24-0.61,0.45-0.92,0.63c-0.31,0.19-0.64,0.33-0.94,0.46
					c-0.28,0.14-0.59,0.23-0.83,0.31c-0.23,0.09-0.48,0.13-0.62,0.17C220.08,243.97,220,243.99,220,243.99z"/>
			</g>
			<g>
				<path class="st14" d="M230,285.81c0,0,0.05-0.06,0.15-0.18c0.1-0.11,0.24-0.32,0.42-0.49c0.18-0.18,0.4-0.42,0.65-0.61
					c0.25-0.21,0.53-0.45,0.84-0.65c0.61-0.41,1.32-0.76,2.08-0.99c0.76-0.23,1.56-0.33,2.36-0.3c0.81,0.06,1.62,0.25,2.36,0.56
					c0.75,0.32,1.43,0.75,2.01,1.23c0.29,0.24,0.55,0.51,0.78,0.75c0.23,0.22,0.43,0.49,0.59,0.69c0.16,0.19,0.29,0.42,0.37,0.54
					c0.08,0.13,0.13,0.2,0.13,0.2s-0.05,0.06-0.16,0.18c-0.1,0.11-0.25,0.31-0.44,0.48c-0.19,0.18-0.41,0.41-0.67,0.6
					c-0.25,0.21-0.54,0.44-0.85,0.63c-0.62,0.4-1.32,0.72-2.07,0.93c-0.75,0.21-1.53,0.27-2.32,0.22c-0.8-0.04-1.59-0.2-2.33-0.5
					c-0.74-0.3-1.42-0.71-2.01-1.17c-0.29-0.22-0.56-0.49-0.79-0.72c-0.24-0.21-0.44-0.47-0.61-0.67c-0.17-0.18-0.3-0.41-0.39-0.52
					C230.05,285.87,230,285.81,230,285.81z"/>
			</g>
		</g>
		<g>
			<g>
				<g>
					<path class="st9" d="M244.65,200.42c-6.15,39.33-0.8,81.38,11.91,118.93c0.41,1.22,2.34,0.69,1.93-0.53
						c-12.59-37.2-18-78.89-11.91-117.87C246.77,199.69,244.84,199.15,244.65,200.42L244.65,200.42z"/>
				</g>
			</g>
			<g>
				<g>
					<path class="st9" d="M205.81,209.91c0.94,9.71,0.59,20.11,5.5,28.87c6.19,11.04,20.82,10.55,31.71,10.51c1.29,0,1.29-2.01,0-2
						c-11.12,0.04-24.35,0.52-30.55-10.53c-4.43-7.91-3.82-18.11-4.66-26.85C207.69,208.64,205.68,208.62,205.81,209.91
						L205.81,209.91z"/>
				</g>
			</g>
			<g>
				<g>
					<path class="st9" d="M247.98,279.39c10.64-1.01,21.19-5.63,27.65-14.39c8.22-11.16,6.64-27.05,6.59-40.04c0-1.29-2.01-1.29-2,0
						c0.04,11.77,0.96,23.98-4,34.99c-4.84,10.75-17.04,16.38-28.24,17.44C246.71,277.51,246.7,279.51,247.98,279.39L247.98,279.39z
						"/>
				</g>
			</g>
			<g>
				<g>
					<path class="st9" d="M250.71,296.7c-8.53,1.11-17.22,2.25-25.75,0.47c-10.97-2.28-14.18-11.62-15.17-21.55
						c-0.13-1.27-2.13-1.28-2,0c0.86,8.58,2.89,16.94,10.92,21.43c9.31,5.22,22.02,2.94,32,1.64
						C251.97,298.54,251.99,296.54,250.71,296.7L250.71,296.7z"/>
				</g>
			</g>
			<g>
				<g>
					<path class="st9" d="M212.75,238.98c-7.05,0.73-14.71,0.42-21.27-2.5c-4.82-2.14-6.43-7.2-8.01-11.79
						c-0.42-1.21-2.35-0.69-1.93,0.53c1.7,4.92,3.37,9.5,7.91,12.43c6.33,4.1,16.16,4.07,23.31,3.33
						C214.02,240.85,214.03,238.85,212.75,238.98L212.75,238.98z"/>
				</g>
			</g>
			<g>
				<g>
					<path class="st9" d="M276.5,263.77c13.9,1.58,30.03-3.03,30-19.53c0-1.29-2-1.29-2,0c0.03,15.44-15.34,18.97-28,17.53
						C275.22,261.62,275.23,263.62,276.5,263.77L276.5,263.77z"/>
				</g>
			</g>
			<g>
				<g>
					<path class="st9" d="M242.25,233.22c-3.7,0.04-7.77,0.6-11.14-1.25c-3.41-1.87-2.85-8.26-2.61-11.52c0.09-1.29-1.91-1.28-2,0
						c-0.29,3.94-0.43,9.04,2.29,12.23c3.02,3.53,9.42,2.59,13.46,2.55C243.54,235.21,243.54,233.21,242.25,233.22L242.25,233.22z"
						/>
				</g>
			</g>
			<g>
				<g>
					<path class="st9" d="M245.5,265.02c11.42,1.43,16.16-10.13,14.71-19.8c-0.19-1.27-2.12-0.73-1.93,0.53
						c1.27,8.5-2.76,18.52-12.79,17.26C244.22,262.86,244.24,264.86,245.5,265.02L245.5,265.02z"/>
				</g>
			</g>
			<g>
				<g>
					<path class="st9" d="M215.27,293.03c4.42-1.11,9.25-1.98,12.9-4.9c3.6-2.89,4.04-8.08,4.09-12.34c0.01-1.29-1.99-1.29-2,0
						c-0.05,4.21-0.47,8.76-4.15,11.41c-3.19,2.3-7.64,2.97-11.37,3.9C213.48,291.41,214.01,293.35,215.27,293.03L215.27,293.03z"/>
				</g>
			</g>
		</g>
		<g>
			<g>
				<g>
					<g>
						<g>
							<path class="st9" d="M182.25,210.43c0.22-2.58,0.25-5.17,0.25-7.76c0-1.29-2-1.29-2,0c0,2.59-0.03,5.18-0.25,7.76
								C180.14,211.72,182.14,211.71,182.25,210.43L182.25,210.43z"/>
						</g>
					</g>
					<g>
						<g>
							<path class="st9" d="M181.5,210.43c-0.03-2.37-0.55-4.78-1.89-6.77c-0.72-1.06-2.45-0.06-1.73,1.01
								c1.15,1.71,1.58,3.72,1.61,5.75C179.52,211.72,181.52,211.72,181.5,210.43L181.5,210.43z"/>
						</g>
					</g>
					<g>
						<g>
							<path class="st9" d="M182.36,211.19c1.21-2.25,1.99-4.67,3-7.01c0.51-1.17-1.22-2.19-1.73-1.01c-1.01,2.33-1.79,4.76-3,7.01
								C180.03,211.31,181.75,212.32,182.36,211.19L182.36,211.19z"/>
						</g>
					</g>
				</g>
				<g>
					<g>
						<g>
							<path class="st9" d="M207,197.91c0-2.84,0-5.68,0-8.51c0-1.29-2-1.29-2,0c0,2.84,0,5.68,0,8.51
								C205,199.2,207,199.2,207,197.91L207,197.91z"/>
						</g>
					</g>
					<g>
						<g>
							<path class="st9" d="M206.5,197.91c-0.34-2.63-1.75-4.58-3.14-6.77c-0.69-1.09-2.42-0.08-1.73,1.01
								c1.15,1.81,2.58,3.56,2.86,5.76C204.66,199.17,206.67,199.19,206.5,197.91L206.5,197.91z"/>
						</g>
					</g>
					<g>
						<g>
							<path class="st9" d="M207.46,198.18c0.81-2.36,1.95-4.59,3.15-6.77c0.62-1.13-1.11-2.14-1.73-1.01
								c-1.29,2.34-2.48,4.73-3.35,7.25C205.11,198.87,207.05,199.39,207.46,198.18L207.46,198.18z"/>
						</g>
					</g>
				</g>
				<g>
					<g>
						<g>
							<path class="st9" d="M228,209.18c-0.02-2.67-0.23-5.34-0.25-8.01c-0.01-1.29-2.01-1.29-2,0c0.02,2.67,0.23,5.34,0.25,8.01
								C226.01,210.47,228.01,210.47,228,209.18L228,209.18z"/>
						</g>
					</g>
					<g>
						<g>
							<path class="st9" d="M227.61,208.67c-1.11-1.83-1.9-3.77-2.65-5.77c-0.45-1.2-2.38-0.68-1.93,0.53
								c0.81,2.15,1.65,4.28,2.85,6.25C226.55,210.79,228.29,209.78,227.61,208.67L227.61,208.67z"/>
						</g>
					</g>
					<g>
						<g>
							<path class="st9" d="M227.71,210.14c1.92-1.8,2.42-4.37,3.91-6.46c0.75-1.06-0.99-2.05-1.73-1.01
								c-1.37,1.94-1.82,4.4-3.59,6.06C225.35,209.61,226.77,211.02,227.71,210.14L227.71,210.14z"/>
						</g>
					</g>
				</g>
				<g>
					<g>
						<g>
							<path class="st9" d="M250.46,185.66c0.49-3.21,1.01-6.41,2-9.52c0.39-1.23-1.54-1.76-1.93-0.53c-0.99,3.1-1.51,6.3-2,9.52
								C248.34,186.39,250.27,186.93,250.46,185.66L250.46,185.66z"/>
						</g>
					</g>
					<g>
						<g>
							<path class="st9" d="M250.5,185.64c-0.3-2.99-1.26-5.83-1.79-8.78c-0.23-1.27-2.16-0.73-1.93,0.53
								c0.5,2.77,1.43,5.44,1.71,8.25C248.63,186.91,250.63,186.93,250.5,185.64L250.5,185.64z"/>
						</g>
					</g>
					<g>
						<g>
							<path class="st9" d="M250.71,186.16c0.9-2.98,2.73-5.02,4.99-7.07c0.96-0.87-0.46-2.28-1.42-1.42
								c-2.53,2.29-4.51,4.64-5.51,7.95C248.41,186.86,250.34,187.39,250.71,186.16L250.71,186.16z"/>
						</g>
					</g>
				</g>
				<g>
					<g>
						<g>
							<path class="st9" d="M260,231.97c0-2.09,0-4.17,0-6.26c0-1.29-2-1.29-2,0c0,2.09,0,4.17,0,6.26
								C258,233.26,260,233.26,260,231.97L260,231.97z"/>
						</g>
					</g>
					<g>
						<g>
							<path class="st9" d="M259.71,231.95c-0.52-2.01-1.41-3.8-2.6-5.5c-0.74-1.05-2.47-0.05-1.73,1.01
								c1.1,1.56,1.92,3.17,2.4,5.02C258.11,233.73,260.04,233.2,259.71,231.95L259.71,231.95z"/>
						</g>
					</g>
					<g>
						<g>
							<path class="st9" d="M259.96,233.43c1.57-1.66,2.46-3.84,3.26-5.95c0.46-1.21-1.48-1.73-1.93-0.53
								c-0.67,1.77-1.42,3.67-2.74,5.07C257.66,232.95,259.07,234.37,259.96,233.43L259.96,233.43z"/>
						</g>
					</g>
				</g>
				<g>
					<g>
						<g>
							<path class="st9" d="M282.75,210.93c0.27-3.01,0.71-5.99,0.75-9.01c0.02-1.29-1.99-1.29-2,0c-0.04,3.02-0.48,6.01-0.75,9.01
								C280.63,212.22,282.64,212.21,282.75,210.93L282.75,210.93z"/>
						</g>
					</g>
					<g>
						<g>
							<path class="st9" d="M282,211.43c0.16-2.88-0.98-5.42-2.04-8.03c-0.48-1.18-2.42-0.66-1.93,0.53
								c0.98,2.43,2.11,4.81,1.96,7.5C279.93,212.72,281.93,212.72,282,211.43L282,211.43z"/>
						</g>
					</g>
					<g>
						<g>
							<path class="st9" d="M282.36,212.44c1.55-2.52,3.52-4.71,4.6-7.5c0.47-1.21-1.47-1.72-1.93-0.53
								c-1.01,2.6-2.95,4.67-4.4,7.02C279.96,212.53,281.69,213.54,282.36,212.44L282.36,212.44z"/>
						</g>
					</g>
				</g>
				<g>
					<g>
						<g>
							<path class="st9" d="M303.96,230.48c0.42-2.79-0.16-5.49-0.21-8.28c-0.03-1.29-2.03-1.29-2,0c0.05,2.59,0.67,5.16,0.29,7.75
								C301.84,231.21,303.77,231.75,303.96,230.48L303.96,230.48z"/>
						</g>
					</g>
					<g>
						<g>
							<path class="st9" d="M303.61,230.21c-1.22-1.97-2.16-4-2.65-6.27c-0.27-1.26-2.2-0.73-1.93,0.53
								c0.52,2.43,1.55,4.64,2.85,6.75C302.56,232.32,304.29,231.31,303.61,230.21L303.61,230.21z"/>
						</g>
					</g>
					<g>
						<g>
							<path class="st9" d="M304.71,230.98c0.72-2.36,1.62-4.65,2.9-6.77c0.67-1.11-1.06-2.11-1.73-1.01
								c-1.37,2.26-2.33,4.73-3.1,7.25C302.41,231.69,304.34,232.21,304.71,230.98L304.71,230.98z"/>
						</g>
					</g>
				</g>
				<g>
					<g>
						<g>
							<path class="st9" d="M230.5,262.77c0-2.25,0-4.51,0-6.76c0-1.29-2-1.29-2,0c0,2.25,0,4.51,0,6.76
								C228.5,264.06,230.5,264.06,230.5,262.77L230.5,262.77z"/>
						</g>
					</g>
					<g>
						<g>
							<path class="st9" d="M230.25,263.02c-0.07-2.35-1.09-4.41-2.54-6.22c-0.81-1-2.22,0.42-1.42,1.42
								c1.11,1.38,1.9,3.01,1.96,4.8C228.29,264.31,230.29,264.31,230.25,263.02L230.25,263.02z"/>
						</g>
					</g>
					<g>
						<g>
							<path class="st9" d="M230.96,263.53c0.73-1.95,1.48-3.9,2.4-5.77c0.57-1.15-1.16-2.17-1.73-1.01c-1,2.03-1.81,4.13-2.6,6.25
								C228.58,264.21,230.52,264.73,230.96,263.53L230.96,263.53z"/>
						</g>
					</g>
				</g>
				<g>
					<g>
						<g>
							<path class="st9" d="M208.46,255.49c-0.48-2.32-0.52-4.69-1-7.01c-0.26-1.26-2.19-0.73-1.93,0.53c0.48,2.32,0.52,4.69,1,7.01
								C206.79,257.29,208.72,256.75,208.46,255.49L208.46,255.49z"/>
						</g>
					</g>
					<g>
						<g>
							<path class="st9" d="M208,256.26c-0.11-2.81-2.19-4.4-4.04-6.22c-0.92-0.9-2.34,0.51-1.42,1.42c1.39,1.36,3.37,2.67,3.46,4.8
								C206.05,257.54,208.05,257.55,208,256.26L208,256.26z"/>
						</g>
					</g>
					<g>
						<g>
							<path class="st9" d="M208.71,257.02c0.71-2.38,1.44-4.73,2.9-6.77c0.75-1.05-0.98-2.05-1.73-1.01
								c-1.55,2.17-2.34,4.72-3.1,7.25C206.41,257.73,208.34,258.26,208.71,257.02L208.71,257.02z"/>
						</g>
					</g>
				</g>
			</g>
			<g>
				<g>
					<path class="st11" d="M241.57,186.25c-12.28,9.02-2.56,34.11,11.82,21.65C264,198.72,254.48,175.56,241.57,186.25"/>
				</g>
				<g>
					<path class="st11" d="M198.92,200.35c-9.8,11.68,5.57,33.75,16.6,18.24C223.65,207.15,208.94,186.89,198.92,200.35"/>
				</g>
				<g>
					<path class="st11" d="M274.08,213.63c-10.55,11,3.33,34.04,15.36,19.3C298.32,222.05,284.96,200.87,274.08,213.63"/>
				</g>
				<g>
					<path class="st11" d="M200.21,259.09c-8.88,12.4,8.15,33.22,17.95,16.9C225.39,263.96,209.15,244.9,200.21,259.09"/>
				</g>
				<g>
					<path class="st11" d="M176.17,212.8c-7.84,9.34,4.45,27,13.28,14.59C195.96,218.24,184.18,202.04,176.17,212.8"/>
				</g>
				<g>
					<path class="st11" d="M297.67,232.68c-7.84,9.34,4.45,27,13.28,14.59C317.46,238.11,305.68,221.91,297.67,232.68"/>
				</g>
				<g>
					<path class="st11" d="M221.88,210.97c-6.82,8.13,3.87,23.49,11.55,12.69C239.1,215.7,228.85,201.6,221.88,210.97"/>
				</g>
				<g>
					<path class="st11" d="M254.03,234.76c-6.82,8.13,3.87,23.49,11.55,12.69C271.25,239.49,261,225.4,254.03,234.76"/>
				</g>
				<g>
					<path class="st11" d="M224.38,264.56c-6.82,8.13,3.87,23.49,11.55,12.69C241.59,269.29,231.35,255.19,224.38,264.56"/>
				</g>
			</g>
			<g>
				<g>
					<path class="st1" d="M249.72,188.83c-2.83,2.08-0.59,7.84,2.72,4.98C254.88,191.69,252.69,186.37,249.72,188.83"/>
				</g>
				<g>
					<path class="st1" d="M209.01,201.7c-2.25,2.69,1.28,7.76,3.82,4.2C214.7,203.26,211.32,198.6,209.01,201.7"/>
				</g>
				<g>
					<path class="st1" d="M283.67,215.36c-2.43,2.53,0.77,7.83,3.53,4.44C289.24,217.3,286.17,212.43,283.67,215.36"/>
				</g>
				<g>
					<path class="st1" d="M210.85,259.96c-2.04,2.85,1.87,7.64,4.13,3.89C216.65,261.08,212.91,256.69,210.85,259.96"/>
				</g>
				<g>
					<path class="st1" d="M184.04,213.68c-1.8,2.15,1.02,6.21,3.05,3.36C188.59,214.93,185.89,211.21,184.04,213.68"/>
				</g>
				<g>
					<path class="st1" d="M305.55,233.56c-1.8,2.15,1.02,6.21,3.05,3.36C310.1,234.81,307.39,231.08,305.55,233.56"/>
				</g>
				<g>
					<path class="st1" d="M229.12,212.09c-1.57,1.87,0.89,5.4,2.66,2.92C233.08,213.17,230.73,209.93,229.12,212.09"/>
				</g>
				<g>
					<path class="st1" d="M261.27,235.88c-1.57,1.87,0.89,5.4,2.66,2.92C265.23,236.96,262.88,233.72,261.27,235.88"/>
				</g>
				<g>
					<path class="st1" d="M231.62,265.67c-1.57,1.87,0.89,5.4,2.66,2.92C235.58,266.76,233.22,263.52,231.62,265.67"/>
				</g>
			</g>
		</g>
	</g>
	<g>
		<g>
			<g>
				<path class="st8" d="M76.95,222.8c-10.42-10.03-12.4-40.13,6.94-41.14c18.36-1,22.32,22.07,22.82,35.62
					c4.46-11.04,12.9-24.58,26.79-24.58c8.43,0.5,14.39,6.52,15.88,15.05c2.48,11.04-4.96,26.59-16.37,30.1
					c16.87-3.51,45.14,14.55,27.78,33.61c-8.43,9.53-28.28,6.02-36.21-3.51c9.5,17.48,5.86,38.88-10.92,40.64
					c-19.66,2.06-24.31-16.56-24.31-30.6c-5.55,19.15-30.26,29.1-40.18,12.54C41.23,276.48,48.41,259,70.5,252.9
					c-13.4,1-43.26-1.59-34.73-27.59C41.27,208.56,65.94,212.85,76.95,222.8"/>
			</g>
			<g>
				<path class="st15" d="M87.54,232.93c-5.69-5.48-6.77-21.91,3.79-22.46c10.02-0.55,12.19,12.05,12.46,19.45
					c2.44-6.03,7.04-13.42,14.62-13.42c4.61,0.27,7.86,3.56,8.67,8.22c1.35,6.03-2.71,14.52-8.94,16.44
					c9.21-1.92,24.65,7.94,15.17,18.35c-4.61,5.21-15.44,3.29-19.77-1.92c5.19,9.54,3.2,21.23-5.96,22.19
					c-10.74,1.12-13.27-9.04-13.27-16.71c-3.03,10.46-16.52,15.89-21.94,6.85c-4.33-7.67-0.41-17.21,11.65-20.54
					c-7.31,0.55-23.62-0.87-18.96-15.07C68.06,225.16,81.53,227.5,87.54,232.93"/>
			</g>
		</g>
		<g>
			<g>
				<path class="st9" d="M92.19,247.03c-3.17-0.25-11.25-3.96-9.78-8.48c1.84-5.13,10.37,2.1,12.32,3.69
					c-2.91-5.35-4.61-12.35-1.31-13.69c5.13-2.31,6.65,9.25,6.76,11.82c0.37-2.69,3.58-13.8,8.27-10.57
					c3.17,2.18-2.62,10-4.21,11.95c1.35-0.85,9.12-8.32,11.87-4.81c2.47,3.16-8.33,7.78-10.89,7.89c4.15,0.01,13.65-2.68,13.1,2.67
					c-0.92,3.68-7.31,3.5-13.35,0.51c1.22,0.74,10.97,6.42,5.54,9.84c-2.59,1.63-6.49-4.93-8.2-7.62
					c0.73,2.94,4.77,10.06,0.78,11.54c-4.93,1.83-4.93-6.87-5.17-9.93c-2.92,13.78-17.62,15.98-4.43-2.02
					C80.51,260.34,74.5,248.63,92.19,247.03"/>
			</g>
			<g>
				<g>
					<path class="st0" d="M99.85,240.37c-3.6,0.34-3.21,6.38,1.14,5.61C104.21,245.42,103.72,239.77,99.85,240.37"/>
				</g>
				<g>
					<path class="st0" d="M101.19,247.28c-2.79,0.26-2.5,4.96,0.89,4.37C104.58,251.2,104.2,246.81,101.19,247.28"/>
				</g>
				<g>
					<path class="st0" d="M94.98,244.79c-3.2,0.3-2.85,5.67,1.02,4.99C98.85,249.28,98.42,244.26,94.98,244.79"/>
				</g>
			</g>
		</g>
	</g>
	<g>
		<g>
			<g>
				<path class="st14" d="M436.23,85.17c-4.11-16.24-1.36-38.76,19.35-50.67C459.2,50.62,453.25,77.21,436.23,85.17"/>
			</g>
			<g>
				<path class="st14" d="M421.97,99.22c12.38-14.82,5.74-37.79-1.74-53.18C414.98,63,412.38,82.08,421.97,99.22"/>
			</g>
			<g>
				<path class="st14" d="M430.03,92.82c10.63-7.42,26.77-7.79,37.21,0.25C455.39,97.54,441.18,99.69,430.03,92.82"/>
			</g>
			<g>
				<path class="st14" d="M411.68,107.12c15.97-11.3,39.34-2.92,51.84,9.28C447.41,122.1,422.59,117.15,411.68,107.12"/>
			</g>
			<g>
				<path class="st14" d="M405.72,109.75c10.71-9.54,4.52-27.79-1.24-38.38C397.35,82.98,399.63,99.22,405.72,109.75"/>
			</g>
			<g>
				<path class="st14" d="M395.55,114.65c10.2-1.85,26.97,2.47,29.52,14.3C414.95,130.52,398.81,126.05,395.55,114.65"/>
			</g>
			<g>
				<path class="st14" d="M388.36,117.15c15.67-10.57,3.92-43.49-3.97-54.94C375.25,77.19,376.46,104.99,388.36,117.15"/>
			</g>
			<g>
				<path class="st14" d="M380.17,121.17c18.53-0.51,34.7,15.3,42.42,33.36C398.13,156.44,378.36,138.24,380.17,121.17"/>
			</g>
			<g>
				<path class="st14" d="M372.73,123.68c5.98-8.52,2.11-26.24-4.96-33.11C365.87,100.72,360.88,114.23,372.73,123.68"/>
			</g>
			<g>
				<path class="st14" d="M359.84,130.45c11.96,0.77,24.31,11.56,25.3,23.33C371.97,149.34,361.75,142.11,359.84,130.45"/>
			</g>
			<g>
				<path class="st14" d="M352.64,133.96c8.39-15.27,7.19-41.77-11.16-58.95C337.94,91.95,336.06,121.14,352.64,133.96"/>
			</g>
			<g>
				<path class="st14" d="M342.72,141.49c13.28-2.4,29.76,13.18,33.73,30.1C360.48,169.48,343.22,160.23,342.72,141.49"/>
			</g>
			<g>
				<path class="st14" d="M336.03,145.25c4.72-11.29-0.79-29.17-12.65-33.86C321.33,123.04,324.88,141.24,336.03,145.25"/>
			</g>
			<g>
				<path class="st14" d="M328.58,153.78c10.22-2.72,21.82,11.55,22.33,20.57C341.41,172.53,330.1,164.29,328.58,153.78"/>
			</g>
			<g>
				<path class="st14" d="M319.65,160.8c5.22-16.37-2.14-38.42-15.38-48.66C297.75,135.29,306.01,154.67,319.65,160.8"/>
			</g>
		</g>
		<g>
			<g>
				<path class="st9" d="M306.87,183.88c9.47-17.94,22.86-33.13,39.49-44.77c14.21-9.94,30.16-15.23,45.95-21.89
					c13.37-5.64,26.2-12.65,36.64-22.88c11.49-11.27,17.96-26.04,19.96-41.88c0.16-1.28-1.84-1.26-2,0
					c-2.22,17.58-10.31,32.83-23.68,44.44c-11.14,9.68-24.9,15.94-38.53,21.24c-16.14,6.28-31.41,12.92-45.25,23.57
					c-14.33,11.02-25.88,25.21-34.31,41.16C304.54,184.01,306.27,185.02,306.87,183.88L306.87,183.88z"/>
			</g>
		</g>
		<g>
			<g>
				<g>
					<path class="st9" d="M306.28,123.8c4.38,12.75,9.14,25.39,12.12,38.56c0.29,1.26,2.21,0.72,1.93-0.53
						c-2.99-13.18-7.74-25.81-12.12-38.56C307.8,122.06,305.86,122.58,306.28,123.8L306.28,123.8z"/>
				</g>
			</g>
			<g>
				<g>
					<path class="st9" d="M326.53,120.8c3.14,8.34,6.52,16.58,8.5,25.29c0.29,1.26,2.21,0.72,1.93-0.53
						c-1.98-8.72-5.36-16.95-8.5-25.29C328.02,119.07,326.08,119.59,326.53,120.8L326.53,120.8z"/>
				</g>
			</g>
			<g>
				<g>
					<path class="st9" d="M344.41,89.12c3.76,14.87,4.48,30.21,6.75,45.32c0.19,1.27,2.12,0.73,1.93-0.53
						c-2.27-15.12-2.99-30.45-6.75-45.32C346.02,87.34,344.09,87.87,344.41,89.12L344.41,89.12z"/>
				</g>
			</g>
			<g>
				<g>
					<path class="st9" d="M368.62,99.5c0.53,8.17,2.68,16.13,3.25,24.29c0.09,1.28,2.09,1.29,2,0c-0.57-8.16-2.72-16.13-3.25-24.29
						C370.54,98.22,368.54,98.21,368.62,99.5L368.62,99.5z"/>
				</g>
			</g>
			<g>
				<g>
					<path class="st9" d="M384.25,73.58c0.18,14.37,4.41,28.66,3.5,43.07c-0.08,1.29,1.92,1.28,2,0c0.91-14.41-3.32-28.7-3.5-43.07
						C386.23,72.29,384.23,72.29,384.25,73.58L384.25,73.58z"/>
				</g>
			</g>
			<g>
				<g>
					<path class="st9" d="M404.25,81.34c-0.07,9.09,1.38,18.09,1.5,27.17c0.02,1.29,2.02,1.29,2,0c-0.12-9.08-1.57-18.08-1.5-27.17
						C406.26,80.05,404.26,80.05,404.25,81.34L404.25,81.34z"/>
				</g>
			</g>
			<g>
				<g>
					<path class="st9" d="M420.12,60.06c1.17,12.86,1.08,25.78,1.12,38.69c0,1.29,2.01,1.29,2,0c-0.05-12.91,0.04-25.82-1.12-38.69
						C422.01,58.78,420.01,58.77,420.12,60.06L420.12,60.06z"/>
				</g>
			</g>
			<g>
				<g>
					<path class="st9" d="M430,93.74c8.93-0.2,17.82-1.24,26.75-0.63c1.29,0.09,1.28-1.91,0-2c-8.93-0.62-17.82,0.42-26.75,0.63
						C428.71,91.77,428.71,93.77,430,93.74L430,93.74z"/>
				</g>
			</g>
			<g>
				<g>
					<path class="st9" d="M412.98,106.6c11.48,2.43,22.93,5.02,34.38,7.64c1.26,0.29,1.79-1.64,0.53-1.93
						c-11.44-2.62-22.89-5.21-34.38-7.64C412.26,104.4,411.72,106.33,412.98,106.6L412.98,106.6z"/>
				</g>
			</g>
			<g>
				<g>
					<path class="st9" d="M396.73,115.74c7.03,2.88,13.71,6.46,20.26,10.29c1.12,0.65,2.12-1.08,1.01-1.73
						c-6.7-3.92-13.55-7.55-20.74-10.49C396.07,113.32,395.56,115.26,396.73,115.74L396.73,115.74z"/>
				</g>
			</g>
			<g>
				<g>
					<path class="st9" d="M380.54,122.24c9.06,9.66,19.62,17.6,30.33,25.32c1.05,0.76,2.05-0.98,1.01-1.73
						c-10.57-7.62-20.98-15.47-29.92-25.01C381.07,119.88,379.66,121.3,380.54,122.24L380.54,122.24z"/>
				</g>
			</g>
			<g>
				<g>
					<path class="st9" d="M359.17,131.26c6.73,5.42,13.02,11.36,19.75,16.78c1,0.8,2.42-0.61,1.42-1.42
						c-6.73-5.42-13.02-11.36-19.75-16.78C359.59,129.04,358.16,130.45,359.17,131.26L359.17,131.26z"/>
				</g>
			</g>
			<g>
				<g>
					<path class="st9" d="M341.87,142.43c8.96,6.91,18.14,13.66,25.17,22.63c0.8,1.02,2.2-0.41,1.42-1.42
						c-7.14-9.11-16.48-15.94-25.58-22.94C341.86,139.92,340.86,141.66,341.87,142.43L341.87,142.43z"/>
				</g>
			</g>
			<g>
				<g>
					<path class="st9" d="M327.92,154.3c5.71,4.79,11.38,9.63,17,14.52c0.97,0.84,2.39-0.57,1.42-1.41
						c-5.62-4.89-11.29-9.73-17-14.52C328.35,152.06,326.93,153.47,327.92,154.3L327.92,154.3z"/>
				</g>
			</g>
		</g>
	</g>
	<g>
		<g>
			<g>
				<path class="st1" d="M210.28,63.67c-9.75-29.03,35.73-33.1,34.73-2.01c13.39-27.03,52.42,5.02,26.29,22.58
					c27.12-4.52,25.47,41.97-0.49,37.12c18.69,23.24-19.24,42.64-30.26,19.57c-0.66,27.09-42,23.08-34.23-1
					c-17.36,19.74-43.82-11.04-21.33-23.08c-21.24,0-22.39-31.61,1.49-31.61C165.14,66.34,196.56,43.1,210.28,63.67"/>
			</g>
			<g>
				<path class="st2" d="M218.51,78.87c-5.66-16.84,20.73-19.2,20.14-1.16c7.77-15.68,30.4,2.91,15.25,13.09
					c15.73-2.62,14.77,24.34-0.29,21.53c10.84,13.48-11.16,24.73-17.55,11.35c-0.38,15.71-24.36,13.38-19.85-0.58
					c-10.07,11.45-25.42-6.4-12.37-13.38c-12.32,0-12.99-18.33,0.86-18.33C192.33,80.42,210.55,66.94,218.51,78.87"/>
			</g>
		</g>
		<g>
			<g>
				<g>
					<path class="st1" d="M225.95,86.06c0,0,0.24-0.75,0.59-1.87c0.09-0.28,0.18-0.58,0.29-0.91c0.11-0.33,0.16-0.61,0.25-0.94
						c0.17-0.66,0.34-1.36,0.52-2.07c0.14-0.74,0.27-1.51,0.4-2.22c0.13-0.72,0.23-1.39,0.3-1.97c0.15-1.17,0.26-1.95,0.26-1.95
						s0.33,0.71,0.83,1.79c0.25,0.54,0.54,1.17,0.82,1.86c0.28,0.69,0.6,1.43,0.89,2.19c0.27,0.8,0.53,1.61,0.78,2.36
						c0.12,0.38,0.26,0.78,0.34,1.1c0.09,0.33,0.17,0.64,0.24,0.92c0.3,1.14,0.5,1.9,0.5,1.9c0.52,1.95-0.65,3.95-2.6,4.46
						c-1.95,0.52-3.95-0.65-4.46-2.6c-0.18-0.69-0.16-1.39,0.04-2.02L225.95,86.06z"/>
				</g>
				<g>
					<path class="st1" d="M218.09,93.25c0,0-0.44-0.7-1.09-1.74c-0.67-1.06-1.5-2.42-2.38-3.75c-0.45-0.65-0.89-1.32-1.34-1.9
						c-0.23-0.3-0.45-0.58-0.66-0.86c-0.22-0.26-0.44-0.5-0.63-0.72c-0.39-0.47-0.76-0.79-1.02-1.04c-0.26-0.25-0.41-0.39-0.41-0.39
						s0.2,0.04,0.55,0.12c0.35,0.08,0.88,0.17,1.47,0.38c0.3,0.1,0.63,0.2,0.98,0.32c0.34,0.13,0.69,0.27,1.06,0.42
						c0.75,0.29,1.5,0.65,2.28,1.01c1.52,0.73,3.02,1.51,4.1,2.05c1.1,0.56,1.83,0.93,1.83,0.93l0.01,0c1.79,0.91,2.5,3.1,1.6,4.89
						c-0.91,1.79-3.1,2.5-4.89,1.6C218.92,94.25,218.43,93.78,218.09,93.25z"/>
				</g>
				<g>
					<path class="st1" d="M215.58,104.38l-11.93-3.8l12.07-3.2l0.04-0.01c1.95-0.52,3.95,0.64,4.47,2.6
						c0.52,1.95-0.64,3.95-2.6,4.47C216.93,104.61,216.23,104.58,215.58,104.38z"/>
				</g>
				<g>
					<path class="st1" d="M220.64,112.54c0,0-0.7,0.32-1.76,0.8c-0.52,0.24-1.14,0.52-1.86,0.82c-0.7,0.29-1.44,0.6-2.18,0.91
						c-0.76,0.26-1.52,0.52-2.23,0.77c-0.35,0.11-0.68,0.24-1.01,0.33c-0.34,0.08-0.65,0.15-0.95,0.22c-1.14,0.25-1.9,0.41-1.9,0.41
						s0.54-0.55,1.36-1.37c0.19-0.2,0.41-0.42,0.63-0.64c0.22-0.24,0.42-0.52,0.65-0.79c0.43-0.55,0.89-1.13,1.35-1.72
						c0.42-0.61,0.84-1.23,1.23-1.8c0.38-0.55,0.74-1.11,1.06-1.61c0.63-0.98,1.04-1.63,1.04-1.63c1.09-1.7,3.35-2.19,5.05-1.1
						c1.7,1.09,2.19,3.35,1.1,5.05C221.82,111.8,221.27,112.26,220.64,112.54L220.64,112.54z"/>
				</g>
				<g>
					<path class="st1" d="M230.25,113.56l-3.8,12.56l-3.2-12.68l-0.01-0.04c-0.49-1.95,0.69-3.93,2.64-4.42
						c1.95-0.49,3.93,0.69,4.42,2.64C230.46,112.27,230.43,112.95,230.25,113.56z"/>
				</g>
				<g>
					<path class="st1" d="M240.31,107.73c0,0,0.13,0.17,0.36,0.47c0.11,0.15,0.25,0.33,0.41,0.54c0.18,0.25,0.38,0.53,0.61,0.84
						c0.22,0.32,0.46,0.67,0.71,1.04c0.2,0.35,0.4,0.72,0.62,1.1c0.44,0.75,0.8,1.58,1.19,2.38c0.35,0.83,0.72,1.63,1,2.41
						c0.3,0.77,0.55,1.49,0.75,2.12c0.21,0.61,0.34,1.15,0.45,1.51c0.1,0.36,0.16,0.57,0.16,0.57s-0.15-0.15-0.42-0.42
						c-0.27-0.26-0.63-0.65-1.11-1.07c-0.47-0.43-1.02-0.92-1.63-1.42c-0.59-0.51-1.28-1.01-1.93-1.51
						c-0.69-0.46-1.33-0.96-1.99-1.33c-0.32-0.19-0.62-0.38-0.91-0.55c-0.27-0.12-0.52-0.24-0.75-0.35
						c-0.24-0.11-0.46-0.21-0.66-0.3c-0.24-0.1-0.45-0.2-0.62-0.27c-0.34-0.15-0.54-0.24-0.54-0.24l-0.03-0.01
						c-1.84-0.8-2.68-2.94-1.88-4.77c0.8-1.84,2.94-2.68,4.77-1.88C239.45,106.85,239.95,107.26,240.31,107.73z"/>
				</g>
				<g>
					<path class="st1" d="M244.1,97.67c0,0,0.73,0.2,1.83,0.51c1.12,0.3,2.62,0.7,4.11,1.09c0.78,0.24,1.53,0.45,2.24,0.73
						c0.35,0.14,0.69,0.24,1.01,0.39c0.31,0.14,0.61,0.28,0.88,0.41c0.54,0.23,0.95,0.54,1.24,0.7c0.29,0.18,0.45,0.28,0.45,0.28
						s-0.19,0-0.53,0.01c-0.34,0.03-0.79-0.01-1.35,0.09c-0.27,0.04-0.57,0.08-0.88,0.13c-0.31,0.04-0.64,0.14-0.97,0.21
						c-0.66,0.14-1.38,0.36-2.08,0.56c-1.45,0.48-2.89,0.96-3.98,1.31c-1.11,0.35-1.85,0.59-1.85,0.59
						c-1.93,0.61-3.98-0.46-4.59-2.38c-0.61-1.93,0.46-3.98,2.38-4.59c0.7-0.22,1.43-0.22,2.09-0.04L244.1,97.67z"/>
				</g>
				<g>
					<path class="st1" d="M236.33,87.27c0,0,0.19-0.08,0.52-0.21c0.17-0.07,0.37-0.15,0.6-0.24c0.2-0.08,0.42-0.17,0.67-0.27
						c0.21-0.09,0.44-0.18,0.68-0.28c0.24-0.08,0.55-0.3,0.84-0.46c0.6-0.33,1.25-0.8,1.91-1.24c0.67-0.47,1.35-0.95,1.98-1.39
						c0.33-0.22,0.62-0.44,0.93-0.63c0.31-0.19,0.59-0.37,0.86-0.53c0.52-0.33,1.02-0.54,1.33-0.71c0.32-0.16,0.5-0.25,0.5-0.25
						s-0.11,0.17-0.3,0.48c-0.18,0.31-0.47,0.7-0.74,1.25c-0.14,0.27-0.28,0.55-0.44,0.86c-0.16,0.29-0.3,0.64-0.45,0.98
						c-0.3,0.69-0.63,1.43-0.95,2.17c-0.35,0.76-0.68,1.53-1.09,2.26c-0.21,0.37-0.35,0.71-0.61,1.08
						c-0.25,0.36-0.49,0.71-0.71,1.02c-0.11,0.15-0.22,0.3-0.32,0.44c-0.08,0.11-0.16,0.22-0.24,0.31c-0.15,0.2-0.28,0.37-0.39,0.51
						c-0.22,0.28-0.34,0.45-0.34,0.45c-1.21,1.6-3.5,1.91-5.1,0.7c-1.6-1.21-1.91-3.5-0.7-5.1c0.41-0.54,0.95-0.94,1.54-1.18
						L236.33,87.27z"/>
				</g>
			</g>
			<g>
				<path class="st9" d="M224.27,89.38c-2.81-8.36,10.29-9.53,10-0.58c3.86-7.78,15.1,1.44,7.57,6.5c7.81-1.3,7.33,12.09-0.14,10.69
					c5.38,6.69-5.54,12.28-8.72,5.64c-0.19,7.8-12.09,6.65-9.86-0.29c-5,5.68-12.62-3.18-6.14-6.65c-6.12,0-6.45-9.1,0.43-9.1
					C211.26,90.15,220.31,83.46,224.27,89.38"/>
			</g>
			<g>
				<g>
					<path class="st0" d="M222.21,99.8c0.59-2.38,4.58-1.48,3.63,1.37C225.15,103.27,221.43,102.34,222.21,99.8"/>
				</g>
				<g>
					<path class="st0" d="M225.06,94.12c0.64-2.6,5-1.62,3.96,1.49C228.26,97.91,224.2,96.9,225.06,94.12"/>
				</g>
				<g>
					<path class="st0" d="M228.3,99.39c0.7-2.82,5.41-1.75,4.29,1.62C231.76,103.49,227.37,102.39,228.3,99.39"/>
				</g>
				<g>
					<path class="st0" d="M231.06,94.28c0.59-2.38,4.58-1.48,3.63,1.37C233.99,97.75,230.27,96.82,231.06,94.28"/>
				</g>
				<g>
					<path class="st0" d="M225.39,104.8c0.64-2.6,5-1.62,3.96,1.49C228.58,108.59,224.53,107.58,225.39,104.8"/>
				</g>
				<g>
					<path class="st0" d="M234.54,100.27c0.61-2.44,4.66-1.54,3.68,1.38C237.5,103.81,233.73,102.88,234.54,100.27"/>
				</g>
				<g>
					<path class="st0" d="M231.77,105.13c0.59-2.39,4.59-1.48,3.63,1.37C234.7,108.6,230.98,107.68,231.77,105.13"/>
				</g>
				<g>
					<path class="st0" d="M237.54,105.36c0.45-1.82,3.5-1.13,2.77,1.04C239.78,108,236.94,107.3,237.54,105.36"/>
				</g>
				<g>
					<path class="st0" d="M235.8,94.38c0.49-1.97,3.79-1.22,3,1.13C238.22,97.25,235.15,96.48,235.8,94.38"/>
				</g>
				<g>
					<path class="st0" d="M229.7,109.31c0.36-1.46,2.8-0.9,2.22,0.84C231.49,111.43,229.22,110.86,229.7,109.31"/>
				</g>
				<g>
					<path class="st0" d="M229.13,90.48c0.39-1.58,3.03-0.98,2.4,0.9C231.07,92.77,228.61,92.16,229.13,90.48"/>
				</g>
				<g>
					<path class="st0" d="M221.25,104.72c0.45-1.82,3.5-1.13,2.77,1.04C223.49,107.37,220.65,106.66,221.25,104.72"/>
				</g>
				<g>
					<path class="st0" d="M220.15,95.48c0.49-1.97,3.79-1.22,3.01,1.13C222.57,98.35,219.5,97.59,220.15,95.48"/>
				</g>
				<g>
					<path class="st0" d="M240.31,99.22c0.29-1.17,2.24-0.72,1.78,0.67C241.74,100.91,239.93,100.46,240.31,99.22"/>
				</g>
				<g>
					<path class="st0" d="M224.04,90.44c0.29-1.17,2.24-0.72,1.78,0.67C225.47,92.13,223.66,91.68,224.04,90.44"/>
				</g>
				<g>
					<path class="st0" d="M233.95,90.41c0.29-1.17,2.24-0.72,1.78,0.67C235.39,92.1,233.57,91.65,233.95,90.41"/>
				</g>
				<g>
					<path class="st0" d="M218.59,100.37c0.29-1.17,2.24-0.72,1.78,0.67C220.02,102.06,218.21,101.61,218.59,100.37"/>
				</g>
			</g>
		</g>
	</g>
	<g>
		<g>
			<path class="st11" d="M79.83,90.76C66.94,80.39,41.91,51.35,59,42.6c15.54-7.96,28.77,33.61,32.74,42.64
				c-2.31-15.55-0.57-59.03,20.34-49.17c14.94,7.05-0.5,41.14-8.93,51.17c3.97-6.02,39.85-42.68,48.62-19.57
				c6.98,18.42-28.28,24.58-40.68,26.09c9.92-0.5,49.61-1,42.66,18.56c-2.98,8.53-19.35,4.52-26.79,2.01
				c-6.45-3.01-8.39-3.3-17.86-9.53c16.04,12.71,38.53,36.79,16.87,46.16c-14.29,6.18-25.3-31.11-25.8-41.64
				c0,11.54,5.46,58.7-20.34,48.16c-17.86-7.53,1.98-37.63,6.45-48.66c-9.88,11.98-31.75,43.15-43.66,32.11
				c-15.87-14.05,10.75-31.1,35.22-39.13c-14.57,3.1-50.27,8.36-44.15-13.55C38.45,71.24,65.24,85.88,79.83,90.76"/>
		</g>
		<g>
			<g>
				<g>
					<path class="st1" d="M95.42,82.48c0,0,2.01-4.77,4.01-9.53c2.2-4.71,4.39-9.43,4.39-9.43s-0.74,5.08-1.49,10.17
						c-0.55,5.14-1.11,10.27-1.11,10.27L95.42,82.48z"/>
				</g>
				<g>
					<path class="st1" d="M95.93,114.58c0,0-0.43,1.08-1.06,2.69c-0.16,0.4-0.33,0.84-0.51,1.3c-0.19,0.46-0.32,0.93-0.5,1.43
						c-0.34,1-0.7,2.06-1.06,3.13c-0.69,2.21-1.36,4.42-1.91,6.08c-0.53,1.65-0.89,2.76-0.89,2.76s-0.02-1.16-0.04-2.9
						c-0.02-1.73-0.08-4.05-0.14-6.37c0-1.19,0-2.38,0.01-3.5c0.01-0.56-0.01-1.12,0.02-1.62c0.03-0.5,0.05-0.97,0.07-1.4
						c0.09-1.74,0.15-2.89,0.15-2.89L95.93,114.58z"/>
				</g>
				<g>
					<path class="st1" d="M106.95,107.15c0,0,0.2,0.23,0.54,0.63c0.09,0.1,0.18,0.21,0.29,0.33c0.12,0.16,0.26,0.33,0.4,0.52
						c0.27,0.37,0.66,0.83,0.89,1.25c0.25,0.43,0.56,0.89,0.81,1.38c0.25,0.49,0.55,1,0.79,1.53c0.52,1.06,1.02,2.18,1.51,3.28
						c0.24,0.52,0.47,1.04,0.71,1.56c0.29,0.52,0.57,1.04,0.84,1.53c0.54,1.01,1.06,1.94,1.45,2.79c0.19,0.42,0.39,0.79,0.52,1.14
						c0.13,0.35,0.25,0.65,0.34,0.9c0.19,0.5,0.29,0.78,0.29,0.78s-0.19-0.24-0.52-0.65c-0.16-0.21-0.36-0.45-0.59-0.74
						c-0.23-0.28-0.53-0.57-0.83-0.9c-0.59-0.66-1.37-1.38-2.18-2.16c-0.41-0.39-0.84-0.79-1.27-1.2c-0.42-0.46-0.85-0.94-1.29-1.41
						c-0.82-0.91-1.61-1.8-2.37-2.58c-0.37-0.41-0.75-0.75-1.1-1.09c-0.35-0.35-0.69-0.61-0.99-0.88c-0.32-0.3-0.54-0.39-0.76-0.56
						c-0.11-0.08-0.21-0.15-0.3-0.22c-0.14-0.08-0.26-0.16-0.37-0.23c-0.45-0.28-0.71-0.44-0.71-0.44L106.95,107.15z"/>
				</g>
				<g>
					<path class="st1" d="M110.58,96.47c0,0,0.28,0.1,0.78,0.28c0.25,0.09,0.55,0.2,0.89,0.32c0.36,0.14,0.71,0.25,1.1,0.36
						c0.39,0.12,0.82,0.25,1.27,0.4c0.46,0.14,1,0.27,1.53,0.42c1.09,0.28,2.25,0.59,3.41,0.89c1.18,0.33,2.35,0.62,3.45,1
						c0.55,0.18,1.08,0.33,1.57,0.53c0.49,0.2,0.95,0.39,1.38,0.56c0.43,0.16,0.81,0.33,1.13,0.52c0.33,0.17,0.61,0.33,0.85,0.45
						c0.46,0.25,0.72,0.39,0.72,0.39s-0.3-0.05-0.82-0.15c-0.26-0.05-0.57-0.1-0.92-0.17c-0.35-0.08-0.75-0.12-1.2-0.14
						c-0.44-0.03-0.92-0.07-1.42-0.1c-0.5-0.03-1.04-0.01-1.59-0.02c-1.09-0.02-2.29,0.06-3.46,0.11c-1.2,0.07-2.4,0.14-3.52,0.21
						c-0.58,0.03-1.11,0.07-1.66,0.08c-0.56,0.01-1.09,0.01-1.58,0.02c-0.5,0.01-0.95,0.01-1.3-0.01c-0.37-0.01-0.69-0.02-0.95-0.03
						c-0.53-0.02-0.83-0.03-0.83-0.03L110.58,96.47z"/>
				</g>
				<g>
					<path class="st1" d="M105.36,88.39c0,0,0.31-0.14,0.85-0.4c0.54-0.25,1.29-0.62,2.27-1.05c0.96-0.44,2.08-0.93,3.28-1.42
						c1.19-0.52,2.5-0.99,3.78-1.49c1.32-0.45,2.6-0.94,3.86-1.29c0.62-0.18,1.22-0.36,1.79-0.53c0.58-0.14,1.12-0.27,1.63-0.39
						c0.5-0.12,0.95-0.24,1.37-0.29c0.41-0.07,0.77-0.12,1.07-0.17c0.59-0.09,0.92-0.14,0.92-0.14s-0.31,0.14-0.85,0.39
						c-0.27,0.12-0.59,0.27-0.97,0.45c-0.38,0.16-0.78,0.4-1.22,0.64c-0.44,0.25-0.91,0.51-1.41,0.79c-0.49,0.31-1,0.63-1.53,0.97
						c-1.07,0.65-2.15,1.46-3.24,2.21c-1.07,0.81-2.15,1.59-3.12,2.38c-0.99,0.77-1.88,1.51-2.63,2.15c-0.75,0.62-1.4,1.2-1.84,1.58
						c-0.45,0.39-0.71,0.61-0.71,0.61L105.36,88.39z"/>
				</g>
				<g>
					<path class="st1" d="M83.67,88.89c0,0-2.15-4.63-4.3-9.26c-2.27-4.55-4.53-9.1-4.53-9.1s3.52,3.72,7.03,7.44
						c3.4,3.8,6.8,7.59,6.8,7.59L83.67,88.89z"/>
				</g>
				<g>
					<path class="st1" d="M79.16,99.24c0,0-1.25-0.13-3.14-0.32c-0.47-0.05-0.98-0.1-1.52-0.15c-0.54-0.06-1.16-0.2-1.77-0.3
						c-1.22-0.23-2.51-0.47-3.81-0.71c-1.24-0.32-2.48-0.65-3.64-0.95c-0.58-0.16-1.13-0.29-1.66-0.45
						c-0.52-0.17-1.01-0.33-1.46-0.47c-1.8-0.59-3-0.98-3-0.98s1.26,0.02,3.15,0.05c0.47,0.01,0.98,0.01,1.51,0.02
						c0.54,0,1.11-0.04,1.69-0.06c1.16-0.05,2.4-0.1,3.64-0.15c1.19-0.14,2.39-0.27,3.51-0.4c0.56-0.07,1.07-0.1,1.59-0.2
						c0.53-0.11,1.03-0.21,1.5-0.3c1.85-0.37,3.09-0.62,3.09-0.62L79.16,99.24z"/>
				</g>
				<g>
					<path class="st1" d="M82.94,109.29c0,0-1.12,0.49-2.81,1.22c-0.84,0.37-1.82,0.8-2.92,1.23c-1.08,0.44-2.23,0.9-3.39,1.37
						c-1.13,0.46-2.26,0.91-3.32,1.34c-1.07,0.42-2.04,0.86-2.87,1.23c-1.68,0.75-2.8,1.25-2.8,1.25s0.92-0.82,2.29-2.04
						c0.69-0.62,1.5-1.34,2.39-2.06c0.89-0.74,1.84-1.52,2.79-2.31c0.93-0.77,1.86-1.54,2.74-2.26c0.87-0.7,1.68-1.42,2.37-2.03
						c1.39-1.21,2.31-2.02,2.31-2.02L82.94,109.29z"/>
				</g>
				<g>
					<path class="st1" d="M91.06,113.41c0,0-1.53,2.71-3.06,5.41c-1.41,2.73-2.83,5.47-2.83,5.47s-0.03-3.14-0.06-6.28
						c0.08-3.11,0.17-6.22,0.17-6.22L91.06,113.41z"/>
				</g>
				<g>
					<path class="st1" d="M99.06,112.65c0,0,0,0.18,0,0.5c0,0.16,0,0.35,0,0.57c0,0.11,0,0.24,0,0.37c0,0.16-0.01,0.34-0.02,0.52
						c-0.02,0.35-0.04,0.73-0.06,1.13c-0.04,0.38-0.12,0.71-0.18,1.09c-0.12,0.75-0.34,1.47-0.52,2.21
						c-0.42,1.4-0.85,2.79-1.17,3.84c-0.3,1.03-0.46,1.75-0.46,1.75s-0.22-0.69-0.48-1.77c-0.24-1.06-0.57-2.48-0.9-3.89
						c-0.19-0.67-0.35-1.36-0.58-1.92c-0.11-0.28-0.2-0.59-0.31-0.81c-0.11-0.2-0.21-0.38-0.3-0.55c-0.04-0.08-0.08-0.16-0.12-0.23
						c-0.06-0.1-0.12-0.2-0.17-0.29c-0.11-0.19-0.21-0.36-0.29-0.5c-0.16-0.28-0.25-0.43-0.25-0.43L99.06,112.65z"/>
				</g>
				<g>
					<path class="st1" d="M105.34,110.08c0,0,0.16,0.73,0.39,1.82c0.06,0.27,0.12,0.57,0.19,0.88c0.07,0.31,0.13,0.68,0.19,1.03
						c0.12,0.72,0.26,1.48,0.39,2.24c0.41,2.95,0.82,5.9,0.82,5.9s-1.79-2.37-3.59-4.73c-0.45-0.55-0.9-1.1-1.32-1.62
						c-0.21-0.26-0.39-0.49-0.61-0.74c-0.21-0.24-0.41-0.47-0.6-0.67c-0.74-0.84-1.23-1.39-1.23-1.39L105.34,110.08z"/>
				</g>
				<g>
					<path class="st1" d="M109.48,105.16c0,0,0.1,0.17,0.27,0.46c0.08,0.15,0.19,0.32,0.31,0.53c0.06,0.1,0.12,0.21,0.19,0.32
						c0.07,0.13,0.15,0.27,0.23,0.42c0.16,0.29,0.33,0.6,0.51,0.94c0.17,0.33,0.31,0.64,0.47,0.99c0.32,0.68,0.61,1.37,0.93,2.08
						c0.31,0.68,0.62,1.38,0.94,1.99c0.3,0.64,0.64,1.18,0.93,1.68c0.28,0.49,0.59,0.85,0.78,1.13c0.2,0.27,0.31,0.43,0.31,0.43
						s-0.17-0.08-0.48-0.23c-0.29-0.16-0.76-0.34-1.26-0.65c-0.5-0.31-1.11-0.66-1.71-1.1c-0.62-0.43-1.24-0.91-1.87-1.39
						c-0.61-0.47-1.22-0.97-1.78-1.38c-0.28-0.2-0.56-0.43-0.8-0.59c-0.24-0.15-0.46-0.3-0.67-0.44c-0.1-0.07-0.2-0.13-0.29-0.19
						c-0.11-0.07-0.22-0.13-0.32-0.2c-0.2-0.12-0.37-0.23-0.52-0.32c-0.29-0.18-0.45-0.28-0.45-0.28L109.48,105.16z"/>
				</g>
				<g>
					<path class="st1" d="M110.02,99.67c0,0,0.73,0.36,1.82,0.91c0.27,0.14,0.57,0.29,0.88,0.44c0.31,0.15,0.67,0.36,1.02,0.55
						c0.7,0.39,1.44,0.8,2.18,1.22c0.7,0.45,1.4,0.91,2.06,1.33c0.32,0.22,0.64,0.4,0.93,0.62c0.28,0.22,0.55,0.42,0.8,0.61
						c0.97,0.74,1.62,1.24,1.62,1.24s-0.8-0.15-2-0.38c-0.29-0.06-0.61-0.11-0.95-0.18c-0.33-0.07-0.71-0.09-1.08-0.14
						c-0.74-0.08-1.53-0.17-2.32-0.26c-0.78-0.03-1.56-0.07-2.28-0.1c-0.37-0.01-0.69-0.04-1.04-0.04c-0.35,0-0.68,0-0.99,0
						c-1.22,0-2.04,0-2.04,0L110.02,99.67z"/>
				</g>
				<g>
					<path class="st1" d="M109.65,94.08c0,0,0.75,0.22,1.88,0.56c0.28,0.08,0.59,0.17,0.91,0.27c0.33,0.1,0.63,0.17,0.98,0.26
						c0.68,0.17,1.41,0.36,2.14,0.54c1.53,0.34,3.06,0.68,4.21,0.94c1.15,0.26,1.91,0.44,1.91,0.44s-0.76,0.2-1.89,0.5
						c-1.13,0.31-2.65,0.72-4.16,1.13c-0.79,0.19-1.58,0.38-2.33,0.56c-0.37,0.08-0.75,0.19-1.08,0.25
						c-0.33,0.07-0.64,0.13-0.93,0.18c-1.15,0.23-1.92,0.38-1.92,0.38L109.65,94.08z"/>
				</g>
				<g>
					<path class="st1" d="M103.92,85.62c0,0,2.83-1.12,5.71-2.19c0.7-0.28,1.4-0.55,2.05-0.81c0.67-0.25,1.26-0.52,1.77-0.76
						c1.03-0.48,1.72-0.8,1.72-0.8s-0.45,0.61-1.14,1.53c-0.34,0.47-0.75,1.01-1.22,1.56c-0.46,0.56-0.96,1.15-1.45,1.74
						c-1.98,2.28-3.94,4.62-3.94,4.62L103.92,85.62z"/>
				</g>
				<g>
					<path class="st1" d="M107.55,90.29c0,0,3.28-0.51,6.57-1.02c0.85-0.09,1.69-0.18,2.48-0.26c0.4-0.03,0.76-0.1,1.13-0.09
						c0.37,0,0.71,0,1.03-0.01c1.24,0,2.07,0,2.07,0s-0.74,0.36-1.85,0.91c-0.27,0.13-0.56,0.28-0.87,0.43
						c-0.31,0.15-0.62,0.37-0.94,0.57c-0.64,0.4-1.32,0.83-2,1.26c-2.69,1.89-5.39,3.79-5.39,3.79L107.55,90.29z"/>
				</g>
				<g>
					<path class="st1" d="M91.66,82.26c0,0,0.17-0.7,0.44-1.75c0.26-1.07,0.6-2.49,0.94-3.91c0.21-0.73,0.39-1.45,0.62-2.12
						c0.21-0.67,0.46-1.28,0.68-1.8c0.19-0.52,0.46-0.92,0.59-1.2c0.15-0.28,0.23-0.44,0.23-0.44s0.01,0.18,0.02,0.5
						c0.03,0.32,0,0.75,0.09,1.29c0.07,0.53,0.14,1.13,0.29,1.78c0.12,0.64,0.31,1.33,0.48,2c0.41,1.39,0.82,2.77,1.12,3.81
						c0.3,1.06,0.5,1.77,0.5,1.77L91.66,82.26z"/>
				</g>
				<g>
					<path class="st1" d="M98.47,82.91c0,0,0.48-0.55,1.21-1.39c0.18-0.21,0.38-0.43,0.58-0.67c0.2-0.24,0.47-0.5,0.71-0.77
						c0.5-0.52,1.04-1.08,1.57-1.63c0.51-0.51,1.02-1.03,1.5-1.51c0.23-0.24,0.49-0.47,0.68-0.71c0.2-0.23,0.4-0.45,0.57-0.65
						c0.72-0.83,1.2-1.38,1.2-1.38s-0.15,0.72-0.36,1.8c-0.06,0.28-0.12,0.57-0.19,0.89c-0.06,0.32-0.16,0.63-0.25,0.97
						c-0.18,0.67-0.38,1.39-0.57,2.11c-0.17,0.67-0.34,1.35-0.5,1.98c-0.08,0.32-0.16,0.59-0.22,0.91c-0.06,0.31-0.12,0.6-0.17,0.87
						c-0.22,1.08-0.36,1.8-0.36,1.8L98.47,82.91z"/>
				</g>
				<g>
					<path class="st1" d="M85.97,85.37c0,0-0.17-0.77-0.42-1.93c-0.06-0.29-0.13-0.6-0.2-0.93c-0.07-0.35-0.16-0.63-0.25-0.97
						c-0.19-0.68-0.39-1.4-0.59-2.12c-0.47-1.51-0.96-3-1.28-4.15c-0.33-1.14-0.55-1.89-0.55-1.89s0.55,0.57,1.36,1.42
						c0.8,0.85,1.93,1.96,3.05,3.08c0.57,0.61,1.13,1.21,1.66,1.78c0.26,0.29,0.55,0.58,0.75,0.84c0.22,0.26,0.42,0.51,0.61,0.73
						c0.76,0.91,1.27,1.52,1.27,1.52L85.97,85.37z"/>
				</g>
				<g>
					<path class="st1" d="M81.26,90.57c0,0-1.47-2.47-2.94-4.95c-1.41-2.54-2.82-5.07-2.82-5.07s2.44,1.45,4.89,2.9
						c2.51,1.39,5.01,2.77,5.01,2.77L81.26,90.57z"/>
				</g>
				<g>
					<path class="st1" d="M79.25,96.02c0,0-0.82-0.36-2.06-0.89c-1.23-0.52-2.86-1.21-4.5-1.9c-0.82-0.32-1.65-0.63-2.42-0.92
						c-0.78-0.31-1.51-0.55-2.14-0.74C66.85,91.17,66,90.9,66,90.9s0.89-0.11,2.23-0.28c0.68-0.09,1.47-0.18,2.31-0.21
						c0.85-0.05,1.76-0.1,2.67-0.15c1.81-0.04,3.61-0.08,4.97-0.11c1.34-0.02,2.24-0.03,2.24-0.03L79.25,96.02z"/>
				</g>
				<g>
					<path class="st1" d="M78.77,102.19c0,0-0.81-0.03-2.02-0.07c-0.6-0.02-1.32-0.04-2.13-0.1c-0.79-0.06-1.63-0.12-2.47-0.18
						c-0.83-0.12-1.65-0.23-2.43-0.34c-0.38-0.06-0.75-0.1-1.1-0.17c-0.35-0.09-0.68-0.17-0.98-0.24c-1.18-0.3-1.97-0.5-1.97-0.5
						s0.79-0.17,1.97-0.44c0.29-0.07,0.6-0.14,0.93-0.21c0.33-0.1,0.67-0.22,1.03-0.34c0.7-0.24,1.44-0.49,2.19-0.74
						c0.72-0.3,1.44-0.6,2.11-0.88c0.65-0.26,1.29-0.56,1.85-0.82c1.1-0.51,1.84-0.85,1.84-0.85L78.77,102.19z"/>
				</g>
				<g>
					<path class="st1" d="M81.06,106.83c0,0-2.9,0.48-5.8,0.96c-3.03,0.36-5.93,0.64-5.93,0.64s2.35-1.69,4.7-3.38
						c2.29-1.85,4.57-3.7,4.57-3.7L81.06,106.83z"/>
				</g>
				<g>
					<path class="st1" d="M84.95,111.73c0,0-2.58,1.51-5.15,3.02c-2.48,1.6-4.96,3.2-4.96,3.2s1.42-2.67,2.85-5.33
						c1.52-2.57,3.04-5.15,3.04-5.15L84.95,111.73z"/>
				</g>
			</g>
			<g>
				<path class="st3" d="M83.31,85.87c-16.47,13.57,5.36,41.86,24.12,23.68C121.28,96.14,100.29,70.14,83.31,85.87"/>
			</g>
			<g>
				<g>
					<path class="st5" d="M83.85,100.69c-2.92,3.54,3.07,8.39,6.27,3.8C92.48,101.1,86.78,96.69,83.85,100.69"/>
				</g>
				<g>
					<path class="st5" d="M92.68,97.01c-2.13,2.6,2.25,6.19,4.58,2.81C98.98,97.32,94.81,94.05,92.68,97.01"/>
				</g>
				<g>
					<path class="st5" d="M91.55,88.16c-3.16,3.83,3.32,9.09,6.79,4.11C100.9,88.6,94.72,83.82,91.55,88.16"/>
				</g>
				<g>
					<path class="st5" d="M100.53,99.91c-2.92,3.54,3.06,8.39,6.27,3.8C109.15,100.32,103.46,95.9,100.53,99.91"/>
				</g>
				<g>
					<path class="st5" d="M101.02,91.62c-2.42,2.97,2.57,7.05,5.22,3.2C108.2,91.98,103.45,88.26,101.02,91.62"/>
				</g>
				<g>
					<path class="st5" d="M83,92.03c-2.42,2.97,2.57,7.05,5.22,3.2C90.17,92.39,85.43,88.67,83,92.03"/>
				</g>
				<g>
					<path class="st5" d="M92.42,105.23c-2.42,2.97,2.57,7.05,5.22,3.2C99.6,105.59,94.85,101.87,92.42,105.23"/>
				</g>
			</g>
		</g>
	</g>
</g>
</svg>
